<?xml version="1.0" encoding="utf-8"?>
<!-- Generator: Adobe Illustrator 21.0.0, SVG Export Plug-In . SVG Version: 6.00 Build 0)  -->
<svg version="1.1" id="Layer_1" xmlns="http://www.w3.org/2000/svg" xmlns:xlink="http://www.w3.org/1999/xlink" x="0px" y="0px"
	 viewBox="0 0 223.2 55.2" style="enable-background:new 0 0 223.2 55.2;" xml:space="preserve">
<style type="text/css">
	.st0{fill:#FFFFFF;}
</style>
<g id="Layer_x0020_1">
	<g id="_245089352">
		<path class="st0" d="M179.4,34.9c0,0.1,0.1,0.2,0.1,0.4c0.3,1,1.2,3.4,1.3,4.3c0.1,0,0.1,0,0.2,0.1l0,0l1.2,3.7
			c0.1,0.2,0.2,0.5,0.5,0.8c0.2,0.2,0.4,0.5,0.6,0.6c0.1,0.1,0.2,0.1,0.4,0.2c0.1,0.1,0.3,0.1,0.5,0.2l0,0c0.1,0,0.2,0.1,0.3,0.1
			c0.1,0,0.2,0,0.3,0.1l0,0l0,0l0,0c0.1,0,0.1,0,0.1,0c0.1,0,0.1,0,0.1,0h5.3l0,0h0.9l0,0h2.9h0c0.1,0,0.1,0.1,0.1,0.1v1.1
			c0,0.1,0,0.1,0,0.2s0,0.1,0,0.2c0,0.1-0.1,0.1-0.1,0.1l0,0h0c0,0,0,0,0,0.1c0,0.1,0,0.1,0,0.1v0.1c0,0,0,0.1,0,0.1c0,0,0,0,0,0.1
			c0,0,0,0.1,0,0.1c-0.1,0.2-0.2,0.3-0.3,0.4c-0.1,0.1-0.3,0.2-0.4,0.3l0,0l-5.1,2.9c0,0,0,0,0,0l-3.8,2.2h0l-2.3,1.3
			c-0.2,0.1-0.3,0.2-0.5,0.2s-0.3,0.1-0.5,0.1s-0.4,0-0.5-0.1s-0.3-0.1-0.5-0.2l0,0l0,0l-2.3-1.3c0,0,0,0,0,0l-3.8-2.2l0,0l0,0l0,0
			l-5.1-3l0,0l0,0c-0.2-0.1-0.3-0.2-0.4-0.3c-0.1-0.1-0.2-0.3-0.3-0.4c0,0,0-0.1,0-0.1l0,0c0,0,0,0,0-0.1l0,0c0,0,0,0,0,0
			c0-0.1-0.1-0.1-0.1-0.2c0-0.1,0-0.1-0.1-0.2l0,0v0c0-0.1,0-0.1,0-0.2c0-0.1,0-0.1,0-0.2v-6.9l0,0l0,0l0,0v-3.9l0,0l0,0l0,0v-2.2
			c0-0.2,0-0.4,0-0.5c0-0.2,0.1-0.3,0.2-0.5c0.1-0.2,0.2-0.3,0.3-0.4c0.1-0.1,0.3-0.2,0.4-0.3l0,0l2.4-1.4h0l3.5-2l0,0c0,0,0,0,0,0
			l2.1-1.2c0.1,0,0.2,0,0.2,0.1v0l0,0l0.9,2.8v0c0,0,0,0,0,0l1.1,3.3L179.4,34.9L179.4,34.9L179.4,34.9z M177.5,45.5L177.5,45.5
			L177.5,45.5l-2.8,1.6l0,0c0,0-0.1,0-0.1,0.1c0,0,0,0-0.1,0.1c0,0,0,0.1,0,0.1c0,0,0,0.1,0,0.1l0,0l0,0l0,0l0,0l0,0l0,0l0,0l0,0
			l0,0v3.2l0,0l0,0l0,0l0,0l0,0l0,0l0,0l0,0l0,0c0,0,0,0.1,0,0.1c0,0,0,0.1,0,0.1c0,0,0,0,0.1,0.1c0,0,0,0,0.1,0.1l0,0l0,0l0,0l0,0
			l0,0l2.8,1.6l0,0l0,0l0,0l0,0l0,0c0,0,0.1,0,0.1,0s0.1,0,0.1,0s0.1,0,0.1,0s0.1,0,0.1,0l0,0l0,0l0,0l0,0l0,0l0,0l0,0l0,0l2.7-1.6
			l0.1-0.1l0,0c0,0,0.1,0,0.1-0.1c0,0,0,0,0.1-0.1c0,0,0-0.1,0-0.1l0,0c0,0,0-0.1,0-0.1l0,0l0,0l0,0l0,0l0,0l0,0l0,0l0,0l0,0v-3.2
			l0,0l0,0l0,0l0,0l0,0l0,0l0,0l0,0l0,0c0,0,0-0.1,0-0.1c0,0,0-0.1,0-0.1c0,0,0,0-0.1-0.1c0,0-0.1,0-0.1-0.1l0,0l-2.8-1.6
			c0,0-0.1,0-0.1,0C177.6,45.4,177.6,45.4,177.5,45.5C177.6,45.4,177.5,45.4,177.5,45.5L177.5,45.5L177.5,45.5
			C177.5,45.4,177.5,45.5,177.5,45.5L177.5,45.5L177.5,45.5L177.5,45.5L177.5,45.5z M171.3,45.5L171.3,45.5
			C171.3,45.5,171.2,45.5,171.3,45.5c-0.1,0-0.1,0-0.2,0l0,0c0,0-0.1,0-0.1,0l0,0l0,0c0,0,0,0-0.1,0l0,0l0,0h0l0,0l-2.8,1.6l0,0
			c0,0-0.1,0-0.1,0.1c0,0,0,0-0.1,0.1c0,0,0,0.1,0,0.1l0,0c0,0,0,0.1,0,0.1l0,0l0,0l0,0l0,0l0,0l0,0l0,0l0,0l0,0v0v0l0,0
			c0,0,0,0,0,0.1c0.1,0.1,0.2,0.3,0.3,0.3c0.1,0.1,0.2,0.2,0.4,0.3l0,0l5.1,2.9l0.3-0.1l0,0c0,0,0.1,0,0.1-0.1c0,0,0,0,0.1-0.1
			c0,0,0-0.1,0-0.1l0,0c0,0,0-0.1,0-0.1l0,0l0,0l0,0l0,0l0,0l0,0l0,0l0,0l0,0v-3.2l0,0l0,0l0,0l0,0l0,0l0,0l0,0l0,0l0,0
			c0,0,0-0.1,0-0.1c0,0,0-0.1,0-0.1c0,0,0,0-0.1-0.1c0,0-0.1,0-0.1-0.1L171.3,45.5L171.3,45.5L171.3,45.5z M171.3,41.2L171.3,41.2
			L171.3,41.2l2.8-1.6l0,0l0,0l0,0l0,0l0,0l0,0l0,0c0,0,0.1,0,0.1-0.1c0,0,0,0,0.1-0.1c0,0,0-0.1,0-0.1l0,0c0,0,0-0.1,0-0.1l0,0l0,0
			l0,0l0,0l0,0l0,0l0,0l0,0l0,0v-3.2l0,0l0,0l0,0l0,0l0,0l0,0l0,0l0,0l0,0c0,0,0-0.1,0-0.1s0-0.1,0-0.1c0,0,0,0-0.1-0.1
			c0,0-0.1,0-0.1-0.1l-2.8-1.6l0,0l0,0c0,0-0.1,0-0.1,0c0,0-0.1,0-0.1,0l0,0c0,0-0.1,0-0.1,0l0,0c0,0,0,0-0.1,0l0,0l0,0l0,0l0,0h0
			l0,0l-2.8,1.6l0,0c0,0-0.1,0-0.1,0.1s0,0-0.1,0.1c0,0,0,0.1,0,0.1l0,0c0,0,0,0.1,0,0.1l0,0l0,0l0,0l0,0l0,0l0,0l0,0l0,0l0,0v3.2
			l0,0l0,0l0,0l0,0l0,0l0,0l0,0l0,0l0,0c0,0,0,0.1,0,0.1s0,0.1,0,0.1c0,0,0,0,0.1,0.1s0.1,0,0.1,0.1l2.8,1.6c0,0,0.1,0,0.1,0
			s0.1,0,0.1,0S171.2,41.3,171.3,41.2L171.3,41.2L171.3,41.2C171.3,41.3,171.3,41.2,171.3,41.2L171.3,41.2L171.3,41.2L171.3,41.2
			L171.3,41.2z M174.4,39.8C174.4,39.8,174.4,39.8,174.4,39.8L174.4,39.8c-0.1,0-0.1,0-0.2,0c0,0,0,0-0.1,0l0,0l0,0h0l0,0l-2.8,1.6
			l0,0l0,0l0,0l0,0l0,0l0,0l0,0l0,0c0,0-0.1,0-0.1,0.1c0,0,0,0-0.1,0.1c0,0,0,0.1,0,0.1l0,0c0,0,0,0.1,0,0.1l0,0l0,0l0,0l0,0l0,0
			l0,0l0,0l0,0l0,0V45l0,0l0,0l0,0l0,0l0,0l0,0l0,0l0,0l0,0c0,0,0,0.1,0,0.1c0,0,0,0.1,0,0.1c0,0,0,0,0.1,0.1c0,0,0.1,0,0.1,0.1l0,0
			l2.8,1.6h0l0,0l0,0l0,0l0,0l0,0c0,0,0.1,0,0.1,0c0,0,0.1,0,0.1,0c0,0,0.1,0,0.1,0c0,0,0.1,0,0.1,0l0,0l0,0l0,0h0l0,0l2.8-1.6l0,0
			c0,0,0.1,0,0.1-0.1c0,0,0,0,0.1-0.1c0,0,0-0.1,0-0.1l0,0c0,0,0-0.1,0-0.1l0,0l0,0l0,0l0,0l0,0l0,0l0,0l0,0l0,0v-3.2l0,0l0,0l0,0
			l0,0l0,0l0,0l0,0l0,0l0,0c0,0,0-0.1,0-0.1c0,0,0-0.1,0-0.1c0,0,0,0-0.1-0.1c0,0-0.1,0-0.1-0.1l0,0L174.4,39.8L174.4,39.8
			C174.5,39.8,174.5,39.8,174.4,39.8z M177.3,45.2L177.3,45.2 M174.2,35.6L174.2,35.6L174.2,35.6L174.2,35.6L174.2,35.6L174.2,35.6
			L174.2,35.6C174.3,35.6,174.3,35.6,174.2,35.6c0.1,0,0.1,0,0.2,0s0.1,0,0.1,0s0.1,0,0.1,0l0,0l0,0l0,0h0l0,0l2.8-1.6l0,0
			c0,0,0.1,0,0.1-0.1s0,0,0.1-0.1c0,0,0-0.1,0-0.1l0,0c0,0,0-0.1,0-0.1l0,0l0,0l0,0l0,0l0,0l0,0l0,0l0,0l0,0v-3.2l0,0l0,0l0,0l0,0
			l0,0l0,0l0,0l0,0l0,0c0,0,0-0.1,0-0.1c0,0,0-0.1,0-0.1c0,0,0,0-0.1-0.1s-0.1,0-0.1-0.1l0,0l-2.7-1.5l-3.4,2v3.1l0,0l0,0l0,0l0,0
			l0,0l0,0l0,0l0,0l0,0c0,0,0,0.1,0,0.1s0,0.1,0,0.1c0,0,0,0,0.1,0.1s0.1,0,0.1,0.1l0,0L174.2,35.6z M168,35.6L168,35.6L168,35.6
			l2.8-1.6l0,0c0,0,0.1,0,0.1-0.1s0,0,0.1-0.1c0,0,0-0.1,0-0.1l0,0c0,0,0-0.1,0-0.1l0,0l0,0l0,0l0,0l0,0l0,0l0,0l0,0l0,0v-2.9
			l-2.2,1.3l0,0c-0.1,0.1-0.3,0.2-0.4,0.3c-0.1,0.1-0.2,0.2-0.3,0.3s-0.1,0.3-0.1,0.4c0,0.1,0,0.3,0,0.5v2.1
			C167.9,35.7,168,35.7,168,35.6C168,35.7,168,35.6,168,35.6L168,35.6L168,35.6L168,35.6L168,35.6z M190.2,45.6l-2.5,1.5l0,0
			c0,0-0.1,0-0.1,0.1c0,0,0,0-0.1,0.1l0,0l0,0c0,0,0,0.1,0,0.1l0,0c0,0,0,0.1,0,0.1l0,0l0,0l0,0l0,0l0,0l0,0l0,0l0,0l0,0v3.2l0,0
			l0,0l0,0l0,0l0,0l0,0l0,0l0,0l0,0c0,0,0,0.1,0,0.1c0,0,0,0.1,0,0.1c0,0,0,0,0.1,0.1c0,0,0,0,0.1,0.1l0,0l0,0l0,0l0,0l0,0l0,0l0,0
			l0.3,0.2l5-2.9l0,0c0.1-0.1,0.3-0.2,0.4-0.3s0.2-0.2,0.3-0.3c0,0,0,0,0-0.1l0,0v0c0,0,0-0.1,0-0.1c0,0,0-0.1,0-0.1l0,0l0,0
			c0,0,0,0-0.1-0.1c0,0-0.1,0-0.1-0.1l0,0l-2.6-1.5L190.2,45.6L190.2,45.6z M193.7,46.8L193.7,46.8L193.7,46.8L193.7,46.8
			L193.7,46.8C193.7,46.8,193.7,46.9,193.7,46.8c0.1,0,0.1,0,0.1,0c0,0,0-0.1,0-0.1c0-0.1,0-0.1,0-0.2v-1h-2.3L193.7,46.8
			L193.7,46.8z M187.5,46.8L187.5,46.8L187.5,46.8l2.1-1.2H185l0.5,0.3l1.7,1l0,0h0l0,0l0,0l0,0l0,0l0,0l0,0c0,0,0.1,0,0.1,0
			c0,0,0.1,0,0.1,0C187.4,46.9,187.4,46.9,187.5,46.8C187.5,46.9,187.5,46.8,187.5,46.8L187.5,46.8L187.5,46.8z M183.9,45.5
			l-2.8,1.6l0,0c0,0-0.1,0-0.1,0.1s0,0-0.1,0.1c0,0,0,0.1,0,0.1c0,0,0,0.1,0,0.1l0,0l0,0l0,0l0,0l0,0l0,0l0,0l0,0l0,0v3.2l0,0l0,0
			l0,0l0,0l0,0l0,0l0,0l0,0l0,0c0,0,0,0.1,0,0.1s0,0.1,0,0.1c0,0,0,0,0.1,0.1s0.1,0,0.1,0.1l0,0l0,0l0,0l0,0l0,0l2,1.2l0.7,0.4h0
			l0,0l0,0l0,0l0,0c0,0,0,0,0.1,0l0,0c0,0,0.1,0,0.1,0s0.1,0,0.1,0s0.1,0,0.1,0l2.8-1.6l0,0l0,0l0,0l0,0l0,0c0,0,0.1,0,0.1-0.1
			s0,0,0.1-0.1c0,0,0-0.1,0-0.1l0,0c0,0,0-0.1,0-0.1l0,0l0,0l0,0l0,0l0,0l0,0l0,0l0,0l0,0v-3.2l0,0l0,0l0,0l0,0l0,0l0,0l0,0l0,0l0,0
			c0,0,0-0.1,0-0.1s0-0.1,0-0.1c0,0,0,0-0.1-0.1s-0.1,0-0.1-0.1l-2.6-1.5c-0.1,0-0.2,0-0.3-0.1C184.1,45.5,184,45.5,183.9,45.5
			L183.9,45.5z M187.1,51.1L187.1,51.1L187.1,51.1l-2.8,1.6l0,0l0,0c0,0-0.1,0-0.1,0.1c0,0,0,0-0.1,0.1c0,0,0,0.1,0,0.1
			c0,0,0,0.1,0,0.1l0,0l0,0l0,0l0,0l0,0l0,0l0,0l0,0l0,0v0.1l3.4-2l-0.1-0.1c0,0-0.1,0-0.1,0s-0.1,0-0.1,0l0,0
			C187.3,51,187.2,51,187.1,51.1C187.2,51,187.1,51.1,187.1,51.1L187.1,51.1L187.1,51.1L187.1,51.1L187.1,51.1L187.1,51.1z
			 M180.9,46.8L180.9,46.8L180.9,46.8l2.6-1.5c-0.1,0-0.1-0.1-0.2-0.1c-0.1-0.1-0.3-0.1-0.4-0.3c-0.3-0.2-0.5-0.4-0.7-0.7
			c-0.2-0.3-0.4-0.7-0.5-0.9l-1.2-3.6l-2.7,1.6l0,0c0,0-0.1,0-0.1,0.1c0,0,0,0-0.1,0.1l0,0l0,0c0,0,0,0.1,0,0.1l0,0c0,0,0,0.1,0,0.1
			l0,0l0,0l0,0l0,0l0,0l0,0l0,0l0,0l0,0v3.2l0,0l0,0l0,0l0,0l0,0l0,0l0,0l0,0l0,0c0,0,0,0.1,0,0.1c0,0,0,0.1,0,0.1c0,0,0,0,0.1,0.1
			c0,0,0,0,0.1,0l0,0l0,0l0,0l0,0l0,0l0,0l0,0l2.8,1.6l0,0l0,0l0,0l0,0c0,0,0.1,0,0.1,0c0,0,0.1,0,0.1,0
			C180.8,46.8,180.8,46.8,180.9,46.8C180.9,46.8,180.9,46.8,180.9,46.8L180.9,46.8L180.9,46.8L180.9,46.8L180.9,46.8z M180.6,51.1
			L180.6,51.1L180.6,51.1l-0.9,0.5l-1.9,1.1l0,0c0,0-0.1,0-0.1,0.1c0,0,0,0-0.1,0.1l0,0l0,0c0,0,0,0.1,0,0.1l0,0c0,0,0,0.1,0,0.1
			l0,0l0,0l0,0l0,0l0,0l0,0l0,0l0,0l0,0v0.3l2.2,1.3l0,0c0.1,0.1,0.3,0.2,0.4,0.2c0.1,0.1,0.3,0.1,0.4,0.1c0.2,0,0.3,0,0.4-0.1
			c0.1-0.1,0.3-0.1,0.4-0.2l2.2-1.3V53l0,0l0,0l0,0l0,0l0,0l0,0l0,0l0,0l0,0c0,0,0-0.1,0-0.1s0-0.1,0-0.1c0,0,0,0-0.1-0.1
			s-0.1,0-0.1-0.1l0,0l-0.7-0.4l-2-1.2l0,0l0,0l0,0l0,0l0,0l0,0l0,0l0,0c0,0-0.1,0-0.1,0S180.8,51.1,180.6,51.1L180.6,51.1
			C180.7,51.1,180.7,51.1,180.6,51.1L180.6,51.1L180.6,51.1C180.6,51.1,180.6,51.1,180.6,51.1L180.6,51.1L180.6,51.1L180.6,51.1
			L180.6,51.1z M174.6,47.1L174.6,47.1 M174.2,51.1L174.2,51.1L174.2,51.1L174.2,51.1l-0.1,0.1l3.4,2V53l0,0l0,0l0,0l0,0l0,0l0,0
			l0,0l0,0l0,0c0,0,0-0.1,0-0.1s0-0.1,0-0.1c0,0,0,0-0.1-0.1s-0.1,0-0.1-0.1l0,0l-2.8-1.6c0,0-0.1,0-0.1,0s-0.1,0-0.1,0l0,0
			C174.3,51.1,174.2,51.1,174.2,51.1C174.2,51.1,174.2,51.1,174.2,51.1L174.2,51.1L174.2,51.1L174.2,51.1L174.2,51.1L174.2,51.1
			L174.2,51.1z M168,46.8L168,46.8L168,46.8l2.8-1.6l0,0c0,0,0.1,0,0.1-0.1c0,0,0,0,0.1-0.1c0,0,0-0.1,0-0.1l0,0c0,0,0-0.1,0-0.1
			l0,0l0,0l0,0l0,0l0,0l0,0l0,0l0,0l0,0v-3.2l0,0l0,0l0,0l0,0l0,0l0,0l0,0l0,0l0,0c0,0,0-0.1,0-0.1c0,0,0-0.1,0-0.1c0,0,0,0-0.1-0.1
			c0,0-0.1,0-0.1-0.1l-2.8-1.6l0,0l0,0c0,0-0.1,0-0.1,0c0,0,0,0-0.1,0v6.8c0,0.1,0,0.1,0,0.2c0,0,0,0.1,0,0.1
			C167.9,46.9,167.9,46.9,168,46.8L168,46.8L168,46.8C167.9,46.9,167.9,46.9,168,46.8L168,46.8L168,46.8L168,46.8z M177.7,30.9v2.8
			l0,0l0,0l0,0l0,0l0,0l0,0l0,0l0,0l0,0c0,0,0,0.1,0,0.1c0,0,0,0.1,0,0.1c0,0,0,0,0.1,0.1c0,0,0.1,0,0.1,0.1l0,0l1,0.6l-0.3-1
			L177.7,30.9L177.7,30.9z M177.7,34.2L177.7,34.2C177.7,34.2,177.6,34.2,177.7,34.2c-0.1,0-0.1,0-0.2,0l0,0c0,0-0.1,0-0.1,0
			c0,0,0,0-0.1,0l0,0l0,0l0,0h0l0,0l-2.8,1.6l0,0c0,0-0.1,0-0.1,0.1c0,0,0,0-0.1,0.1c0,0,0,0.1,0,0.1c0,0,0,0.1,0,0.1l0,0l0,0l0,0
			l0,0l0,0l0,0l0,0l0,0l0,0v3.2l0,0l0,0l0,0l0,0l0,0l0,0l0,0l0,0l0,0c0,0,0,0.1,0,0.1c0,0,0,0.1,0,0.1c0,0,0,0,0.1,0.1
			c0,0,0.1,0,0.1,0.1l0,0l2.8,1.6l0,0c0.1,0,0.1,0.1,0.2,0.1c0,0,0.1,0,0.1,0l0,0l0,0h0l0,0l2.8-1.6c0.1,0-1-3.2-1.4-4.3
			c-0.1-0.1-0.1-0.3-0.1-0.3L177.7,34.2L177.7,34.2L177.7,34.2z M174.9,28.5l2.5,1.4l-0.8-2.4L174.9,28.5z M177.2,34L177.2,34
			 M174.6,35.8L174.6,35.8"/>
		<path class="st0" d="M181.4,25c-0.1,0-0.3,0-0.4,0h-0.1c-0.2,0-0.4,0-0.5,0l0,0c-0.2,0-0.3,0.1-0.5,0.1c-0.1,0-0.3,0.1-0.4,0.1
			c-0.1,0.1-0.2,0.1-0.3,0.1l0,0h0l0,0l0,0l0,0l-9.9,5.7l0,0l-0.3,0.2c-0.1,0.1-0.2,0.1-0.3,0.2s-0.2,0.1-0.3,0.2
			c-0.1,0.1-0.2,0.2-0.3,0.3c-0.1,0.1-0.1,0.2-0.2,0.3l-0.1,0.1l0,0l0,0c-0.1,0.2-0.2,0.3-0.2,0.5c-0.1,0.1-0.1,0.3-0.1,0.5
			c0,0.1-0.1,0.3-0.1,0.4s0,0.2,0,0.3V46c0,0.1,0,0.2,0,0.3s0,0.2,0.1,0.4c0,0.1,0.1,0.3,0.1,0.4l0,0c0.1,0.1,0.1,0.3,0.2,0.4
			l0.1,0.1c0.1,0.2,0.2,0.3,0.3,0.5c0.1,0.1,0.2,0.3,0.3,0.3c0.1,0.1,0.2,0.2,0.3,0.3c0.1,0.1,0.2,0.1,0.3,0.2l9.9,5.7l0,0l0.3,0.2
			l0,0l0,0c0.1,0.1,0.2,0.1,0.3,0.1c0.1,0.1,0.2,0.1,0.3,0.1h0h0l0,0h0l0,0c0.1,0,0.3,0.1,0.5,0.1c0.1,0,0.3,0,0.4,0h0.1
			c0.2,0,0.4,0,0.5,0l0,0c0.2,0,0.3-0.1,0.5-0.1c0.1,0,0.3-0.1,0.4-0.1c0.1-0.1,0.2-0.1,0.3-0.1l0,0h0l0,0l0,0l0,0l9.9-5.7l0,0
			l0.3-0.2c0.1-0.1,0.2-0.1,0.3-0.2s0.2-0.1,0.3-0.2s0.2-0.2,0.3-0.3c0.1-0.1,0.1-0.2,0.2-0.3l0.1-0.1l0,0l0,0
			c0.1-0.2,0.2-0.3,0.2-0.5c0.1-0.1,0.1-0.3,0.1-0.5c0-0.1,0.1-0.3,0.1-0.4s0-0.2,0-0.3V34.2c0-0.1,0-0.2,0-0.3s0-0.2-0.1-0.4
			c0-0.1-0.1-0.3-0.1-0.4c-0.1-0.1-0.1-0.3-0.2-0.4l-0.1-0.1c-0.1-0.2-0.2-0.3-0.3-0.5c-0.1-0.1-0.2-0.3-0.3-0.3
			c-0.1-0.1-0.2-0.2-0.3-0.3s-0.2-0.1-0.3-0.2l-9.9-5.7l0,0l-0.3-0.2l0,0l0,0c-0.1-0.1-0.2-0.1-0.3-0.2c-0.1,0-0.1-0.1-0.2-0.1
			 M182,25.2l-0.1-0.1c-0.1-0.1-0.3-0.1-0.5-0.1 M181.3,25.7c0.1,0,0.3,0.1,0.3,0.1l0.4,0.1v0c0.1,0,0.1,0.1,0.2,0.1l0.3,0.2l0,0
			l9.9,5.7l0,0c0.1,0,0.1,0.1,0.2,0.1c0.1,0.1,0.2,0.1,0.3,0.2c0.1,0.1,0.2,0.2,0.3,0.3s0.2,0.2,0.2,0.3l0,0l0,0l0.2,0.3l0,0v0
			c0.1,0.1,0.1,0.3,0.1,0.3c0,0.1,0,0.2,0.1,0.3c0,0.1,0,0.2,0,0.3V46c0,0.1,0,0.2,0,0.3c0,0.1,0,0.2-0.1,0.3c0,0.1-0.1,0.2-0.1,0.4
			c-0.1,0.1-0.1,0.3-0.2,0.4l-0.2,0.3h0l0,0c-0.1,0.1-0.2,0.2-0.3,0.3c-0.1,0.1-0.2,0.1-0.3,0.2c-0.1,0.1-0.1,0.1-0.2,0.1l0,0l0,0
			l-0.3,0.2l0,0l-9.9,5.7l0,0l0,0l0,0h0h0c-0.1,0-0.1,0.1-0.2,0.1s-0.2,0.1-0.3,0.1c-0.1,0-0.3,0.1-0.4,0.1c-0.1,0-0.3,0-0.4,0h-0.4
			v0h0c-0.1,0-0.3-0.1-0.3-0.1l0,0l0,0l0,0h0h0c-0.1,0-0.2-0.1-0.3-0.1l0,0c-0.1,0-0.1-0.1-0.2-0.1l-0.3-0.2l0,0l-9.9-5.7l0,0
			c-0.1,0-0.1-0.1-0.2-0.1c-0.1-0.1-0.2-0.1-0.3-0.2c-0.1-0.1-0.2-0.2-0.3-0.3c-0.1-0.1-0.2-0.2-0.2-0.3l0,0l0,0l-0.2-0.3l0,0v0
			c-0.1-0.1-0.1-0.3-0.1-0.3c0-0.1,0-0.2-0.1-0.3c0-0.1,0-0.2,0-0.3V34.3c0-0.1,0-0.2,0-0.3c0-0.1,0-0.2,0.1-0.3s0.1-0.2,0.1-0.4
			c0.1-0.1,0.1-0.3,0.2-0.4l0.2-0.3h0l0,0c0.1-0.1,0.2-0.2,0.3-0.3c0.1-0.1,0.2-0.1,0.3-0.2l0,0c0.1-0.1,0.1-0.1,0.2-0.1l0,0l0,0
			l0.3-0.2l0,0l9.9-5.7l0,0l0,0l0,0h0h0c0.1,0,0.1-0.1,0.2-0.1c0.1,0,0.2-0.1,0.3-0.1c0.1,0,0.3-0.1,0.4-0.1c0.1,0,0.3,0,0.4,0
			H181.3L181.3,25.7L181.3,25.7L181.3,25.7z"/>
		<path class="st0" d="M198.8,5.3L198.8,5.3 M185.4,9.4L185.4,9.4L185.4,9.4 M191.7,5.3L189,3.8l-3.3,1.9v3l0,0l0,0l0,0l0,0l0,0l0,0
			l0,0l0,0l0,0l0,0v0l0,0v0l0,0c0,0,0,0,0,0v0l0,0c0,0,0,0,0,0c0,0,0,0,0,0l0,0c0,0,0,0,0,0c0,0,0,0,0,0l0,0l0,0l0,0l2.8,1.6l0,0
			l0,0l0,0l0,0l0,0l0,0l0,0l0,0c0,0,0,0,0,0h0h0h0l0,0h0h0l0,0h0l0,0h0l0,0h0l0,0l0,0l0,0l2.8-1.6l0,0l0,0l0,0l0,0l0,0l0,0l0,0
			c0,0,0,0,0,0l0,0l0,0l0,0c0,0,0,0,0,0c0,0,0,0,0,0v0l0,0v0l0,0 M185.7,9.1L185.7,9.1 M191.8,8.8C191.8,8.8,191.8,8.8,191.8,8.8
			L191.8,8.8L191.8,8.8L191.8,8.8L191.8,8.8L191.8,8.8L191.8,8.8L191.8,8.8L191.8,8.8L191.8,8.8L191.8,8.8V5.6l0,0l0,0l0,0l0,0l0,0
			l0,0l0,0l0,0l0,0l0,0v0v0l0,0c0,0,0,0,0,0v0l0,0c0,0,0,0,0,0l0,0c0,0,0,0,0,0l0,0c0,0,0,0,0,0c0,0,0,0,0,0l0,0l0,0l0,0 M191.7,5.2
			L191.7,5.2 M205,9.4L205,9.4L205,9.4 M208.2,15L208.2,15L208.2,15L208.2,15L208.2,15l-0.8,0.4l0.8,0.6L208.2,15L208.2,15L208.2,15
			L208.2,15L208.2,15L208.2,15L208.2,15 M208.2,15L208.2,15 M208.2,15L208.2,15L208.2,15 M191.7,9L191.7,9 M192.3,5.2L192.3,5.2
			 M189,10.9L189,10.9 M182.6,14.7l0.8,0.5l1.5-1.1l3.6-2.6v-0.3l0,0l0,0l0,0l0,0l0,0l0,0l0,0l0,0l0,0l0,0v0l0,0v0l0,0c0,0,0,0,0,0
			v0l0,0c0,0,0,0,0,0c0,0,0,0,0,0l0,0c0,0,0,0,0,0l0,0l0,0l0,0l-2.8-1.6h0h0h0l0,0h0l0,0l0,0h0h0l0,0c0,0,0,0,0,0l0,0l0,0h0l0,0
			c0,0,0,0,0,0l0,0l0,0l0,0h0l0,0l0,0l0,0l-2.8,1.6l0,0l0,0l0,0c0,0,0,0,0,0l0,0l0,0l0,0c0,0,0,0,0,0c0,0,0,0,0,0v0l0,0c0,0,0,0,0,0
			l0,0l0,0l0,0v0c0,0,0,0,0,0l0,0l0,0l0,0l0,0l0,0l0,0l0,0l0,0l0,0l0,0v3.2l0,0l0,0l0,0l0,0l0,0l0,0l0,0l0,0l0,0l0,0v0v0l0,0
			c0,0,0,0,0,0v0l0,0c0,0,0,0,0,0l0,0c0,0,0,0,0,0c0,0,0,0,0,0l0,0L182.6,14.7L182.6,14.7L182.6,14.7L182.6,14.7z M195.2,3.7
			L195.2,3.7L195.2,3.7L195.2,3.7L195.2,3.7L195.2,3.7l-2.8,1.6l0,0l0,0l0,0l0,0c0,0,0,0,0,0l0,0c0,0,0,0,0,0c0,0,0,0,0,0l0,0l0,0
			l0,0c0,0,0,0,0,0l0,0l0,0l0,0v0c0,0,0,0,0,0l0,0l0,0l0,0l0,0l0,0l0,0l0,0l0,0l0,0l0,0v3.2l0,0l0,0l0,0l0,0l0,0l0,0l0,0l0,0l0,0
			l0,0l0,0c0.1,0,0.2-0.1,0.4-0.2c0.6-0.4,1.6-1.1,2.7-1.1c1,0,2.1,0.7,2.7,1.1c0.2,0.1,0.3,0.2,0.4,0.3v0l0,0l0,0l0,0l0,0l0,0l0,0
			l0,0l0,0l0,0l0,0V5.5l0,0l0,0l0,0l0,0l0,0l0,0l0,0l0,0l0,0l0,0v0l0,0v0l0,0c0,0,0,0,0,0v0l0,0l0,0l0,0c0,0,0,0,0,0l0,0
			c0,0,0,0,0,0l0,0c0,0,0,0,0,0l0,0l-2.8-1.6l0,0c0,0,0,0,0,0h0l0,0h0h0l0,0h0l0,0h0l0,0l0,0h0l0,0C195.3,3.7,195.2,3.7,195.2,3.7
			L195.2,3.7L195.2,3.7L195.2,3.7z M188.9,3.3L188.9,3.3L188.9,3.3l5.3-3.1l0,0l0,0c0.1-0.1,0.2-0.1,0.2-0.1c0.1,0,0.2-0.1,0.2-0.1
			c0.1,0,0.2-0.1,0.3-0.1c0.1,0,0.2,0,0.3,0l0,0l0,0l0,0l0,0l0,0l0,0l0,0l0,0l0,0c0.1,0,0.2,0,0.3,0s0.2,0,0.3,0.1
			c0.1,0,0.2,0.1,0.3,0.1c0.1,0,0.2,0.1,0.3,0.1l5.3,3.1l0,0l0,0l0,0l0,0l0,0l0,0l0,0l3.5,2c0,0,0,0,0,0l0,0c0,0,0,0,0,0l2.4,1.4
			l0,0l0.1,0c0.1,0.1,0.2,0.1,0.2,0.1c0.1,0.1,0.1,0.1,0.2,0.2c0.1,0.1,0.1,0.1,0.2,0.2c0.1,0.1,0.1,0.1,0.2,0.2
			c0.1,0.1,0.1,0.2,0.1,0.3c0,0.1,0.1,0.2,0.1,0.3c0,0.1,0,0.2,0,0.3c0,0.1,0,0.2,0,0.3v2.2c0,0.1,0,0.1-0.1,0.1
			c0,0-0.1,0.1-0.1,0.1c0,0,0,0.1,0,0.1c0,0,0,0.1,0,0.1v3.2c0,0,0,0.1,0,0.1l0,0v0.1h0c0,0,0.1,0.1,0.1,0.1s0,0,0,0.1l0,0v0.1v1.7
			c0,0.1,0,0.1-0.1,0.1l0,0c0,0-0.1,0.1-0.1,0.1s-0.1,0-0.1-0.1c0,0-0.1-0.1-0.1-0.1l-1.3-1l0,0l0,0l0,0l0,0l0,0l0,0l-1.6-1.2
			l-3.7-2.7l0,0l0,0l0,0l0,0l0,0l-3.4-2.5c0,0-0.1-0.1-0.1-0.1c0,0,0,0,0-0.1c-0.1-0.1-0.3-0.2-0.5-0.3c-0.6-0.4-1.5-1-2.4-1
			c-1.2,0-2.5,0.9-3,1.2l0,0c0,0,0,0,0,0.1c0,0.1,0,0.1,0,0.1c0,0.1-0.1,0.1-0.1,0.1l0,0l0,0l0,0c0,0,0,0.1,0,0.1s0,0,0,0v0l0,0
			c0,0,0,0.1,0,0.1l0,0c0,0,0,0-0.1,0.1l-3.1,2.1l0,0l0,0l0,0l-3.7,2.7l-1.6,1.2l0,0l0,0l0,0l-1.3,1c0,0,0,0.1-0.1,0.1l0,0
			c0,0-0.1,0-0.1,0c-0.1,0-0.1,0-0.1-0.1l0,0c0,0,0-0.1-0.1-0.1l0,0v-0.1v-1.6v-0.1l0,0v-3.9v-0.1l0,0V8.6c0-0.1,0-0.2,0-0.3
			c0-0.1,0-0.2,0-0.3l0,0c0-0.1,0-0.2,0.1-0.3c0-0.1,0.1-0.2,0.1-0.3c0.1-0.1,0.1-0.2,0.2-0.3c0.1-0.1,0.1-0.1,0.2-0.2
			c0.1-0.1,0.1-0.1,0.2-0.2c0.1-0.1,0.1-0.1,0.2-0.1l0,0l0,0l0,0l2.5-1.4l0,0l0,0c0,0,0,0,0,0L188.9,3.3L188.9,3.3L188.9,3.3
			L188.9,3.3z M195,0.4C195,0.4,195,0.4,195,0.4c-0.1,0-0.1,0-0.2,0c-0.1,0-0.1,0.1-0.2,0.1c-0.1,0-0.1,0.1-0.2,0.1l0,0l0,0l0,0
			l-5,2.9l2.4,1.4h0h0l0,0h0h0h0l0,0h0l0,0h0l0,0h0l0,0h0l0,0h0l0,0l0,0l0,0l2.8-1.6l0,0l0,0l0,0l0,0l0,0c0,0,0,0,0,0c0,0,0,0,0,0
			c0,0,0,0,0,0v0l0,0v0v0c0,0,0,0,0,0l0,0l0,0l0,0l0,0l0,0l0,0l0,0l0,0l0,0l0,0V0.4L195,0.4z M201.5,3.8l-2.6,1.5l0,0l0,0l0,0l0,0
			c0,0,0,0,0,0c0,0,0,0,0,0c0,0,0,0,0,0v0l0,0v0l0,0v0l0,0c0,0,0,0,0,0l0,0l0,0l0,0l0,0l0,0l0,0l0,0l0,0l0,0l0,0v3.2l0,0l0,0l0,0
			l0,0l0,0l0,0l0,0l0,0l0,0l0,0v0v0l0,0c0,0,0,0,0,0l0,0v0c0,0,0,0,0,0l0,0c0,0,0,0,0,0l0,0c0,0,0,0,0,0l0,0c0,0,0,0,0,0l0,0l0,0
			l0,0l0,0l2.8,1.6l0,0l0,0l0,0l0,0l0,0l0,0l0,0l0,0c0,0,0,0,0,0h0h0l0,0h0h0l0,0c0,0,0,0,0,0l0,0l0,0h0c0,0,0,0,0,0l0,0l0,0l0,0
			l0,0l0,0l0,0l0,0l0,0l0,0l0,0l0,0l0,0l0,0l2.8-1.6l0,0l0,0l0,0l0,0l0,0c0,0,0,0,0,0c0,0,0,0,0,0c0,0,0,0,0,0v0l0,0v0l0,0
			c0,0,0,0,0,0v0l0,0l0,0l0,0l0,0l0,0l0,0l0,0l0,0l0,0l0,0v-3L201.5,3.8L201.5,3.8z M201.1,3.5l-5-2.9l0,0c-0.1,0-0.1-0.1-0.2-0.1
			c-0.1,0-0.1-0.1-0.2-0.1c-0.1,0-0.1,0-0.1,0c0,0,0,0-0.1,0v2.7l0,0l0,0l0,0l0,0l0,0l0,0l0,0l0,0l0,0l0,0c0,0,0,0,0,0.1v0
			c0,0,0,0,0,0v0l0,0c0,0,0,0,0,0c0,0,0,0,0,0l0,0c0,0,0,0,0,0l0,0l0,0l2.8,1.6l0,0l0,0l0,0l0,0l0,0l0,0l0,0h0l0,0h0l0,0h0l0,0h0h0
			h0h0l0,0h0h0l0,0l0,0l0,0l0,0l0,0l0,0L201.1,3.5L201.1,3.5z M208.3,10.6v-2c0-0.1,0-0.2,0-0.3c0-0.1,0-0.1,0-0.2
			c0-0.1,0-0.1-0.1-0.2l0,0c0-0.1-0.1-0.1-0.1-0.2c0-0.1-0.1-0.1-0.1-0.2l0,0c-0.1-0.1-0.1-0.1-0.1-0.1c-0.1-0.1-0.1-0.1-0.2-0.1
			c-0.1,0-0.1-0.1-0.2-0.1l-0.1,0l0,0L205.3,6v2.8l0,0l0,0l0,0l0,0l0,0l0,0l0,0l0,0l0,0v0v0l0,0v0v0l0,0c0,0,0,0,0,0c0,0,0,0,0,0
			l0,0c0,0,0,0,0,0l0,0l0,0l0,0l0,0l0,0l0,0l0,0l0,0l0,0l0,0l0,0l0,0L208.3,10.6L208.3,10.6L208.3,10.6L208.3,10.6L208.3,10.6
			L208.3,10.6L208.3,10.6z M185.2,6l-2.2,1.2l0,0l0,0l0,0c-0.1,0.1-0.1,0.1-0.2,0.1s-0.1,0.1-0.2,0.1s-0.1,0.1-0.1,0.1
			c-0.1,0.1-0.1,0.1-0.1,0.2c0,0.1-0.1,0.1-0.1,0.2c0,0.1,0,0.1-0.1,0.2l0,0c0,0.1,0,0.1,0,0.2c0,0.1,0,0.1,0,0.3v2h0l0,0l0,0l0,0
			l0,0l0,0h0l0,0l0,0l0,0l2.8-1.6l0,0l0,0l0,0l0,0l0,0l0,0c0,0,0,0,0,0l0,0c0,0,0,0,0,0l0,0v0l0,0c0,0,0,0,0,0l0,0l0,0l0,0v0
			c0,0,0,0,0,0l0,0l0,0l0,0l0,0l0,0l0,0l0,0l0,0l0,0l0,0V6L185.2,6z M190.1,10.3l-1,0.6l0,0l0,0c0,0,0,0,0,0l0,0l0,0l0,0
			c0,0,0,0,0,0c0,0,0,0,0,0l0,0v0l0,0v0l0,0v0v0L190.1,10.3L190.1,10.3z M204.9,9.3L204.9,9.3L204.9,9.3L204.9,9.3L204.9,9.3
			l-2.8,1.6l0,0l0,0l0,0l0,0l0,0l0,0l0,0l0,0l0,0l0,0l0,0l0,0l0,0c0,0,0,0,0,0l0,0c0,0,0,0,0,0c0,0,0,0,0,0c0,0,0,0,0,0l0,0l0,0l0,0
			v0l0,0v0l0,0c0,0,0,0,0,0l0,0l0,0l0,0l0,0l0,0l0,0l0,0l0,0l0,0l0,0v0.3l3.6,2.6l1.5,1.1l0.9-0.5l0,0l0,0l0,0l0,0l0,0l0,0
			c0,0,0,0,0,0l0,0c0,0,0,0,0,0l0,0c0,0,0,0,0,0c0,0,0,0,0,0l0,0l0,0l0,0v0l0,0v0c0,0,0,0,0-0.1v-3.2c0,0,0,0,0-0.1v0c0,0,0,0,0,0v0
			l0,0l0,0c0,0,0,0,0,0l0,0c0,0,0,0,0,0l0,0c0,0,0,0,0,0h0l-2.8-1.6l0,0l0,0l0,0l0,0l0,0l0,0l0,0l0,0c0,0,0,0,0,0l0,0h0h0l0,0l0,0h0
			L204.9,9.3L204.9,9.3L204.9,9.3L204.9,9.3L204.9,9.3L204.9,9.3C205,9.3,204.9,9.3,204.9,9.3L204.9,9.3L204.9,9.3L204.9,9.3z
			 M201.4,11l-0.6-0.4l0.7,0.5v0l0,0v0l0,0c0,0,0,0,0,0v0l0,0C201.5,11,201.5,11,201.4,11C201.5,11,201.5,11,201.4,11L201.4,11
			C201.5,11,201.5,11,201.4,11L201.4,11L201.4,11L201.4,11L201.4,11z M182.2,15v1l0.8-0.6L182.2,15L182.2,15L182.2,15L182.2,15
			L182.2,15L182.2,15z"/>
		<path class="st0" d="M195.8,0c-0.1,0-0.3,0-0.4,0h-0.1c-0.2,0-0.4,0-0.5,0l0,0c-0.2,0-0.3,0.1-0.5,0.1c-0.1,0-0.3,0.1-0.4,0.1
			c-0.1,0.1-0.2,0.1-0.3,0.1l0,0h0l0,0l0,0l0,0l-9.9,5.7l0,0l-0.3,0.2c-0.1,0.1-0.2,0.1-0.3,0.2c-0.1,0.1-0.2,0.1-0.3,0.2
			c-0.1,0.1-0.2,0.2-0.3,0.3c-0.1,0.1-0.1,0.2-0.2,0.3l-0.1,0.1l0,0l0,0C182.1,7.7,182,7.9,182,8c-0.1,0.1-0.1,0.3-0.1,0.5
			c0,0.1-0.1,0.3-0.1,0.4c0,0.1,0,0.2,0,0.3V21c0,0.1,0,0.2,0,0.3s0,0.2,0.1,0.4c0,0.1,0.1,0.3,0.1,0.4l0,0c0.1,0.1,0.1,0.3,0.2,0.4
			l0.1,0.1c0.1,0.2,0.2,0.3,0.3,0.5c0.1,0.1,0.2,0.3,0.3,0.3c0.1,0.1,0.2,0.2,0.3,0.3s0.2,0.1,0.3,0.2l9.9,5.7l0,0l0.3,0.2l0,0l0,0
			c0.1,0.1,0.2,0.1,0.3,0.1s0.2,0.1,0.3,0.1h0h0l0,0h0l0,0c0.1,0.1,0.3,0.1,0.5,0.1c0.1,0,0.3,0,0.4,0h0.1c0.2,0,0.4,0,0.5-0.1l0,0
			c0.2,0,0.3-0.1,0.5-0.1c0.1,0,0.3-0.1,0.4-0.1c0.1-0.1,0.2-0.1,0.3-0.1l0,0h0l0,0l0,0l0,0l9.9-5.7l0,0l0.3-0.2
			c0.1-0.1,0.2-0.1,0.3-0.2s0.2-0.1,0.3-0.2c0.1-0.1,0.2-0.2,0.3-0.3c0.1-0.1,0.1-0.2,0.2-0.3l0.1-0.1l0,0l0,0
			c0.1-0.2,0.2-0.3,0.2-0.5c0.1-0.1,0.1-0.3,0.1-0.5s0.1-0.3,0.1-0.4c0-0.1,0-0.2,0-0.3V9.2c0-0.1,0-0.2,0-0.3c0-0.1,0-0.2-0.1-0.4
			c0-0.1-0.1-0.3-0.1-0.4c-0.1-0.1-0.1-0.3-0.2-0.4l-0.1-0.1c-0.1-0.2-0.2-0.3-0.3-0.5s-0.2-0.3-0.3-0.3c-0.1-0.1-0.2-0.2-0.3-0.3
			c-0.1-0.1-0.2-0.1-0.3-0.2l0,0l-9.9-5.7l0,0L197,0.4l0,0l0,0c-0.1-0.1-0.2-0.1-0.3-0.2c-0.1,0-0.1-0.1-0.2-0.1l-0.1,0
			C196.2,0.1,196,0,195.8,0L195.8,0z M195.7,0.7c0.1,0,0.3,0.1,0.3,0.1l0,0l0,0l0,0l0,0l0,0 M196,0.8l0.4,0.1v0
			c0.1,0,0.1,0.1,0.2,0.1l0.3,0.2l0,0l9.9,5.7l0,0c0.1,0,0.1,0.1,0.2,0.1s0.2,0.1,0.3,0.2c0.1,0.1,0.2,0.2,0.3,0.3
			c0.1,0.1,0.2,0.2,0.2,0.3l0,0l0,0l0.2,0.3l0,0v0c0.1,0.1,0.1,0.3,0.1,0.3c0,0.1,0,0.2,0.1,0.3c0,0.1,0,0.2,0,0.3V21
			c0,0.1,0,0.2,0,0.3c0,0.1,0,0.2-0.1,0.3s-0.1,0.2-0.1,0.4c-0.1,0.1-0.1,0.3-0.2,0.4l-0.2,0.3h0l0,0c-0.1,0.1-0.2,0.2-0.3,0.3
			c-0.1,0.1-0.2,0.1-0.3,0.2c-0.1,0.1-0.1,0.1-0.2,0.1l0,0l0,0l-0.3,0.2l0,0l-9.9,5.7l0,0l0,0l0,0h0h0c-0.1,0-0.1,0.1-0.2,0.1
			c-0.1,0-0.2,0.1-0.3,0.1c-0.1,0-0.3,0.1-0.4,0.1c-0.1,0-0.3,0-0.4,0h-0.4v0h0c-0.1,0-0.3-0.1-0.3-0.1l0,0l0,0l0,0h0h0
			c-0.1,0-0.2-0.1-0.3-0.1l0,0c-0.1,0-0.1-0.1-0.2-0.1l-0.3-0.2l0,0l-9.9-5.7l0,0c-0.1,0-0.1-0.1-0.2-0.1s-0.2-0.1-0.3-0.2
			c-0.1-0.1-0.2-0.2-0.3-0.3s-0.2-0.2-0.2-0.3l0,0l0,0l-0.2-0.3l0,0v0c-0.1-0.1-0.1-0.3-0.1-0.3c0-0.1,0-0.2-0.1-0.3
			c0-0.1,0-0.2,0-0.3V9.3c0-0.1,0-0.2,0-0.3c0-0.1,0-0.2,0.1-0.3c0-0.1,0.1-0.2,0.1-0.4c0.1-0.1,0.1-0.3,0.2-0.4l0.2-0.3h0l0,0
			c0.1-0.1,0.2-0.2,0.3-0.3c0.1-0.1,0.2-0.1,0.3-0.2c0.1-0.1,0.1-0.1,0.2-0.1l0,0l0,0l0.3-0.2l0,0l9.9-5.7l0,0l0,0l0,0h0h0
			c0.1,0,0.1-0.1,0.2-0.1s0.2-0.1,0.3-0.1c0.1,0,0.3-0.1,0.4-0.1c0.1,0,0.3,0,0.4,0h0.4v0h0"/>
		<path class="st0" d="M222.7,35.9C222.7,35.9,222.7,35.9,222.7,35.9C222.7,36,222.7,36,222.7,35.9c-0.1,0.1-0.1,0.2-0.1,0.2v3.2
			c0,0.1,0,0.1,0,0.1l0,0l0,0c0,0,0,0,0,0.1c0,0,0.1,0,0.1,0c0.1,0,0.1,0.1,0.1,0.1l0,0v6.9c0,0.1,0,0.1,0,0.2s0,0.1,0,0.2
			c0,0.1-0.1,0.1-0.1,0.1l0,0h0c0,0,0,0,0,0.1c0,0.1,0,0.1,0,0.1v0.1c0,0,0,0.1,0,0.1c0,0,0,0,0,0.1c0,0,0,0.1,0,0.1
			c-0.1,0.2-0.2,0.3-0.3,0.4c-0.1,0.1-0.3,0.2-0.4,0.3l0,0l-5.1,2.9c0,0,0,0,0,0l-3.8,2.2h0l-2.3,1.3c-0.2,0.1-0.3,0.2-0.5,0.2
			s-0.3,0.1-0.5,0.1c-0.2,0-0.4,0-0.5-0.1s-0.3-0.1-0.5-0.2l0,0l0,0l-2.3-1.3c0,0,0,0,0,0l-3.8-2.2l0,0l0,0l0,0l-5.1-3l0,0l0,0
			c-0.2-0.1-0.3-0.2-0.4-0.3c-0.1-0.1-0.3-0.3-0.3-0.4c0,0,0-0.1,0-0.1l0,0c0,0,0,0,0-0.1l0,0c0,0,0,0,0,0c0-0.1-0.1-0.1-0.1-0.2
			c0-0.1,0-0.1-0.1-0.2l0,0v0c0-0.1,0-0.1,0-0.2c0-0.1,0-0.1,0-0.2v-1.1c0-0.1,0.1-0.1,0.1-0.1h2.9l0,0h0.9l0,0l0,0h5h0.4
			c0,0,0.1,0,0.1,0c0.1,0,0.1,0,0.1,0c0,0,0,0,0.1,0v0l0,0v0c0-0.1,0.1-0.1,0.2-0.1h0c0.1,0,0.2,0,0.3,0l0.1-0.1
			c0.5-0.3,1.8-1.4,1.9-2.2l0.1-0.2l1-3.1l0,0l0,0l1.6-4.8l0,0l0,0l0,0l0.4-1.3l1-3l0.1-0.4c0,0,0,0,0,0l0,0v0L213,29l0.5-1.7
			c0-0.1,0.1-0.1,0.2-0.1c0,0,0,0,0,0l2.1,1.2l0,0l0,0l0,0l0,0l3.5,2h0l2.4,1.4l0,0l0,0c0.2,0.1,0.3,0.2,0.4,0.3
			c0.1,0.1,0.2,0.3,0.3,0.4c0.1,0.2,0.2,0.3,0.2,0.5c0,0.2,0,0.3,0,0.5V35.9c0,0-0.1,0-0.1,0.1L222.7,35.9z M209.4,46.9L209.4,46.9
			L209.4,46.9L209.4,46.9C209.4,46.9,209.5,46.9,209.4,46.9c0.1,0,0.1,0,0.2,0c0,0,0.1,0,0.1,0c0,0,0,0,0.1,0l0,0l0,0l0,0h0l0,0
			l2.8-1.6l0,0c0,0,0.1,0,0.1-0.1c0,0,0,0,0.1-0.1c0,0,0-0.1,0-0.1l0,0c0,0,0-0.1,0-0.1l0,0l0,0l0,0l0,0l0,0l0,0l0,0l0,0l0,0v-3.2
			l0,0l0,0l0,0l0,0l0,0l0,0l0,0l0,0l0,0c0,0,0-0.1,0-0.1s0-0.1,0-0.1c0,0,0,0-0.1-0.1c0,0-0.1,0-0.1-0.1l-2.7-1.6l-0.9,3.1
			c-0.3,0.8-1.7,1.9-2,2.3l0,0L209.4,46.9L209.4,46.9L209.4,46.9z M212.7,45.5L212.7,45.5L212.7,45.5l-2.8,1.6l0,0
			c0,0-0.1,0-0.1,0.1c0,0,0,0-0.1,0.1c0,0,0,0.1,0,0.1c0,0,0,0.1,0,0.1l0,0l0,0l0,0l0,0l0,0l0,0l0,0l0,0l0,0v3.2l0,0l0,0l0,0l0,0
			l0,0l0,0l0,0l0,0l0,0c0,0,0,0.1,0,0.1c0,0,0,0.1,0,0.1c0,0,0,0,0.1,0.1c0,0,0.1,0,0.1,0.1l0,0l0,0l0,0l0,0l0,0l2,1.2l0.7,0.4h0
			l0,0l0,0l0,0l0,0c0,0,0,0,0.1,0l0,0c0,0,0.1,0,0.1,0c0,0,0.1,0,0.1,0c0,0,0.1,0,0.1,0l2.8-1.6l0,0l0,0l0,0l0,0l0,0
			c0,0,0.1,0,0.1-0.1c0,0,0,0,0.1-0.1c0,0,0-0.1,0-0.1l0,0c0,0,0-0.1,0-0.1l0,0l0,0l0,0l0,0l0,0l0,0l0,0l0,0l0,0v-3.2l0,0l0,0l0,0
			l0,0l0,0l0,0l0,0l0,0l0,0c0,0,0-0.1,0-0.1c0,0,0-0.1,0-0.1c0,0,0,0-0.1-0.1c0,0-0.1,0-0.1-0.1l-2.8-1.6l0,0l0,0l0,0
			c0,0-0.1,0-0.1,0c0,0-0.1,0-0.1,0l0,0C212.8,45.5,212.8,45.5,212.7,45.5L212.7,45.5C212.7,45.5,212.7,45.5,212.7,45.5L212.7,45.5
			L212.7,45.5L212.7,45.5z M213,30l2.5-1.4l-1.7-1l-0.5,1.5L213,30L213,30z M215.8,28.7l-2.6,1.5l0,0c0,0-0.1,0-0.1,0.1s0,0-0.1,0.1
			c0,0,0,0.1,0,0.1l0,0c0,0,0,0.1,0,0.1l0,0l0,0l0,0l0,0l0,0l0,0l0,0l0,0l0,0v3.2l0,0l0,0l0,0l0,0l0,0l0,0l0,0l0,0l0,0
			c0,0,0,0.1,0,0.1s0,0.1,0,0.1c0,0,0,0,0.1,0.1s0,0,0.1,0.1l0,0l0,0l0,0l0,0l0,0l0,0l0,0l2.8,1.6h0l0,0l0,0l0,0l0,0l0,0
			c0,0,0.1,0,0.1,0c0,0,0.1,0,0.1,0c0,0,0.1,0,0.1,0l0,0c0,0,0.1,0,0.1,0l0,0l0,0l0,0l0,0l0,0l0,0l0,0l0,0l0,0l0,0l0,0l0,0L219,34
			l0,0c0,0,0.1,0,0.1-0.1s0,0,0.1-0.1c0,0,0-0.1,0-0.1l0,0c0,0,0-0.1,0-0.1l0,0l0,0l0,0l0,0l0,0l0,0l0,0v-3.1L215.8,28.7L215.8,28.7
			z M204.4,46.5l-1,0.6l0,0c0,0-0.1,0-0.1,0.1s0,0-0.1,0.1c0,0,0,0.1,0,0.1c0,0,0,0.1,0,0.1l0,0l0,0l0,0l0,0l0,0l0,0l0,0l0,0l0,0
			v3.2l0,0l0,0l0,0l0,0l0,0l0,0l0,0l0,0l0,0c0,0,0,0.1,0,0.1s0,0.1,0,0.1c0,0,0,0,0.1,0.1s0,0,0.1,0.1l0,0l0,0l0,0l0,0l0,0l2.8,1.6
			l0,0l0,0l0,0l0,0l0,0c0,0,0.1,0,0.1,0c0,0,0.1,0,0.1,0c0,0,0.1,0,0.1,0c0,0,0.1,0,0.1,0l0,0l0,0l0,0l0,0l0,0l0,0l0,0l0,0l2.7-1.6
			l0.1-0.1l0,0c0,0,0.1,0,0.1-0.1s0,0,0.1-0.1c0,0,0-0.1,0-0.1l0,0c0,0,0-0.1,0-0.1l0,0l0,0l0,0l0,0l0,0l0,0l0,0l0,0l0,0v-3.2l0,0
			l0,0l0,0l0,0l0,0l0,0l0,0l0,0l0,0c0,0,0-0.1,0-0.1s0-0.1,0-0.1c0,0,0,0-0.1-0.1s-0.1,0-0.1-0.1l0,0l-2.8-1.6c-0.1,0-0.1,0-0.1-0.1
			c0,0.1-0.1,0.2-0.4,0.2L204.4,46.5L204.4,46.5z M209.4,51.1L209.4,51.1L209.4,51.1l-0.9,0.5l-1.9,1.1l0,0c0,0-0.1,0-0.1,0.1
			c0,0,0,0-0.1,0.1l0,0l0,0c0,0,0,0.1,0,0.1l0,0c0,0,0,0.1,0,0.1l0,0l0,0l0,0l0,0l0,0l0,0l0,0l0,0l0,0v0.3l2.2,1.3l0,0
			c0.1,0.1,0.3,0.2,0.4,0.2c0.1,0.1,0.3,0.1,0.4,0.1c0.2,0,0.3,0,0.4-0.1c0.1-0.1,0.3-0.1,0.4-0.2l2.2-1.3V53l0,0l0,0l0,0l0,0l0,0
			l0,0l0,0l0,0l0,0c0,0,0-0.1,0-0.1c0,0,0-0.1,0-0.1c0,0,0,0-0.1-0.1c0,0-0.1,0-0.1-0.1l0,0l-0.7-0.4l-2-1.2l0,0l0,0l0,0l0,0l0,0
			l0,0l0,0l0,0c0,0-0.1,0-0.1,0C209.6,51.1,209.5,51.1,209.4,51.1L209.4,51.1C209.5,51.1,209.4,51.1,209.4,51.1L209.4,51.1
			L209.4,51.1C209.4,51.1,209.4,51.1,209.4,51.1L209.4,51.1L209.4,51.1L209.4,51.1L209.4,51.1z M203.2,46.9L203.2,46.9L203.2,46.9
			l2.1-1.2h-0.1h-4.4l2.1,1.2l0,0h0l0,0l0,0l0,0l0,0l0,0c0,0,0.1,0,0.1,0c0,0,0.1,0,0.1,0C203.1,46.9,203.2,46.9,203.2,46.9
			C203.2,46.9,203.2,46.9,203.2,46.9L203.2,46.9L203.2,46.9L203.2,46.9L203.2,46.9z M206,45.4L206,45.4C206,45.4,206,45.4,206,45.4z
			 M215.9,46.9L215.9,46.9L215.9,46.9L215.9,46.9L215.9,46.9L215.9,46.9L215.9,46.9L215.9,46.9C215.9,46.9,216,46.9,215.9,46.9
			c0.1,0,0.1,0,0.2,0c0,0,0.1,0,0.1,0c0,0,0.1,0,0.1,0l0,0h0l0,0l2.8-1.6l0,0c0,0,0.1,0,0.1-0.1c0,0,0,0,0.1-0.1c0,0,0-0.1,0-0.1
			l0,0c0,0,0-0.1,0-0.1l0,0l0,0l0,0l0,0l0,0l0,0l0,0v-3.2l0,0l0,0l0,0l0,0l0,0l0,0c0,0,0-0.1,0-0.1s0-0.1,0-0.1c0,0,0,0-0.1-0.1
			c0,0-0.1,0-0.1-0.1l0,0l-1.1-0.7l-1.6-1c0,0-0.1,0-0.1,0c0,0-0.1,0-0.1,0l0,0c0,0-0.1,0-0.1,0c0,0-0.1,0-0.1,0l0,0l0,0l0,0l0,0h0
			l0,0l-2.8,1.6h0l0,0l0,0l0,0l0,0c0,0-0.1,0-0.1,0.1c0,0,0,0-0.1,0.1c0,0,0,0.1,0,0.1l0,0c0,0,0,0.1,0,0.1l0,0l0,0l0,0l0,0l0,0l0,0
			l0,0l0,0l0,0V45l0,0l0,0l0,0l0,0l0,0l0,0l0,0l0,0l0,0c0,0,0,0.1,0,0.1s0,0.1,0,0.1c0,0,0,0,0.1,0.1c0,0,0.1,0,0.1,0.1l0,0
			L215.9,46.9z M219.4,41.8L219.4,41.8V45l0,0l0,0l0,0l0,0l0,0l0,0c0,0,0,0.1,0,0.1s0,0.1,0,0.1c0,0,0,0,0.1,0.1s0.1,0,0.1,0.1l0,0
			l0,0l0,0l0,0l0,0l0,0l0,0l2.8,1.6l0,0h0l0,0l0,0c0,0,0.1,0,0.1,0c0,0,0,0,0.1,0c0,0,0-0.1,0-0.1c0-0.1,0-0.1,0-0.2v-6.8
			c0,0-0.1,0-0.1,0l0,0l0,0c0,0,0,0-0.1,0l0,0l0,0l0,0l0,0h0l0,0l-1.8,1l-1,0.6l0,0l0,0l0,0l0,0l0,0l0,0l0,0l0,0c0,0-0.1,0-0.1,0.1
			c0,0,0,0-0.1,0.1l0,0l0,0c0,0,0,0.1,0,0.1l0,0C219.4,41.6,219.4,41.7,219.4,41.8L219.4,41.8L219.4,41.8L219.4,41.8L219.4,41.8
			L219.4,41.8L219.4,41.8L219.4,41.8z M219.1,45.5L219.1,45.5L219.1,45.5l-2.8,1.6l0,0c0,0-0.1,0-0.1,0.1c0,0,0,0-0.1,0.1l0,0l0,0
			c0,0,0,0.1,0,0.1l0,0c0,0,0,0.1,0,0.1l0,0l0,0l0,0l0,0l0,0l0,0l0,0l0,0l0,0v3.2l0,0l0,0l0,0l0,0l0,0l0,0l0,0l0,0l0,0
			c0,0,0,0.1,0,0.1c0,0,0,0.1,0,0.1c0,0,0,0,0.1,0.1c0,0,0,0,0.1,0.1l0,0l0,0l0,0l0,0l0,0l0,0l0,0l0.3,0.2l5-2.9l0,0
			c0.1-0.1,0.3-0.2,0.4-0.3c0.1-0.1,0.2-0.2,0.3-0.3c0,0,0,0,0-0.1l0,0v0c0,0,0-0.1,0-0.1s0-0.1,0-0.1l0,0l0,0c0,0,0,0-0.1-0.1
			s-0.1,0-0.1-0.1l0,0l-2.8-1.6l0,0l0,0l0,0l0,0l0,0l0,0l0,0c0,0-0.1,0-0.1,0c0,0-0.1,0-0.1,0C219.2,45.5,219.2,45.5,219.1,45.5
			C219.1,45.5,219.1,45.5,219.1,45.5L219.1,45.5L219.1,45.5L219.1,45.5L219.1,45.5z M212.9,41.2L212.9,41.2l2.8-1.6l0,0l0,0h0l0,0
			l0,0l0,0l0,0c0,0,0.1,0,0.1,0c0,0,0,0,0.1-0.1c0,0,0-0.1,0-0.1l0,0c0,0,0-0.1,0-0.1l0,0l0,0l0,0l0,0l0,0l0,0l0,0l0,0l0,0v-3.2l0,0
			l0,0l0,0l0,0l0,0l0,0l0,0l0,0l0,0c0,0,0-0.1,0-0.1c0,0,0-0.1,0-0.1c0,0,0,0-0.1-0.1c0,0-0.1,0-0.1-0.1l-2.8-1.6c0,0-0.1,0-0.1,0
			c0,0-0.1,0-0.1,0l0,0c0,0-0.1,0-0.1,0s-0.1,0-0.1,0l0,0l0,0l0,0l0,0l0,0l0,0l0,0l0,0l-1.3,0.8l-1.5,4.6h0l2.8,1.6l0,0l0,0l0,0l0,0
			l0,0l0,0l0,0l0,0c0,0,0.1,0,0.1,0s0.1,0,0.1,0c0,0,0.1,0,0.1,0l0,0C212.9,41.3,212.9,41.3,212.9,41.2L212.9,41.2L212.9,41.2
			L212.9,41.2L212.9,41.2L212.9,41.2z M215.9,51.1L215.9,51.1L215.9,51.1l-2.8,1.6l0,0l0,0c0,0-0.1,0-0.1,0.1c0,0,0,0-0.1,0.1
			c0,0,0,0.1,0,0.1c0,0,0,0.1,0,0.1l0,0l0,0l0,0l0,0l0,0l0,0l0,0l0,0l0,0v0.1l3.4-2l-0.1-0.1c0,0-0.1,0-0.1,0s-0.1,0-0.1,0l0,0
			C216,51.1,216,51.1,215.9,51.1C215.9,51.1,215.9,51.1,215.9,51.1L215.9,51.1L215.9,51.1L215.9,51.1L215.9,51.1L215.9,51.1z
			 M202.9,51.1L202.9,51.1L202.9,51.1L202.9,51.1l-0.1,0.1l3.4,2V53l0,0l0,0l0,0l0,0l0,0l0,0l0,0l0,0l0,0c0,0,0-0.1,0-0.1
			c0,0,0-0.1,0-0.1c0,0,0,0-0.1-0.1c0,0-0.1,0-0.1-0.1l0,0l-2.8-1.6c0,0-0.1,0-0.1,0s-0.1,0-0.1,0l0,0C203,51.1,203,51.1,202.9,51.1
			C202.9,51.1,202.9,51.1,202.9,51.1L202.9,51.1L202.9,51.1L202.9,51.1L202.9,51.1L202.9,51.1L202.9,51.1z M196.7,46.9L196.7,46.9
			L196.7,46.9l2.1-1.2h-2.3v1c0,0.1,0,0.1,0,0.2c0,0,0,0.1,0,0.1C196.6,46.9,196.6,46.9,196.7,46.9L196.7,46.9L196.7,46.9
			C196.6,46.9,196.6,46.9,196.7,46.9L196.7,46.9L196.7,46.9L196.7,46.9z M202.8,47.1l-2.6-1.5h-0.8l-2.5,1.5l0,0c0,0-0.1,0-0.1,0.1
			c0,0,0,0-0.1,0.1c0,0,0,0.1,0,0.1l0,0c0,0,0,0.1,0,0.1l0,0l0,0l0,0l0,0l0,0l0,0l0,0l0,0l0,0v0v0l0,0c0,0,0,0,0,0.1
			c0.1,0.1,0.2,0.3,0.3,0.3c0.1,0.1,0.2,0.2,0.4,0.3l0,0l5.1,2.9l0.3-0.1l0,0c0,0,0.1,0,0.1-0.1c0,0,0,0,0.1-0.1c0,0,0-0.1,0-0.1
			l0,0c0,0,0-0.1,0-0.1l0,0l0,0l0,0l0,0l0,0l0,0l0,0l0,0l0,0v-3.2l0,0l0,0l0,0l0,0l0,0l0,0l0,0l0,0l0,0c0,0,0-0.1,0-0.1
			c0,0,0-0.1,0-0.1C202.9,47.2,202.8,47.2,202.8,47.1C202.8,47.1,202.8,47.1,202.8,47.1L202.8,47.1z M219.4,41.2L219.4,41.2l2.8-1.6
			l0,0l0,0l0,0l0,0l0,0l0,0l0,0c0,0,0.1,0,0.1-0.1c0,0,0,0,0.1-0.1l0,0l0,0c0,0,0-0.1,0-0.1l0,0c0,0,0-0.1,0-0.1v-3.2
			c0,0,0-0.1,0-0.1s0-0.1,0-0.1l0,0l0,0c0,0,0,0-0.1-0.1s-0.1,0-0.1-0.1l0,0l-2.8-1.6l0,0l0,0l0,0l0,0l0,0l0,0l0,0c0,0-0.1,0-0.1,0
			c0,0-0.1,0-0.1,0l0,0c0,0-0.1,0-0.1,0c0,0,0,0-0.1,0l0,0l0,0l0,0h0l0,0l-2.8,1.6l0,0l0,0l0,0l0,0l0,0l0,0l0,0l0,0l0,0l0,0l0,0
			c0,0-0.1,0-0.1,0.1c0,0,0,0-0.1,0.1l0,0l0,0c0,0,0,0.1,0,0.1l0,0c0,0,0,0.1,0,0.1l0,0l0,0l0,0l0,0l0,0l0,0l0,0l0,0l0,0v3.2l0,0
			l0,0l0,0l0,0l0,0l0,0l0,0l0,0l0,0c0,0,0,0.1,0,0.1s0,0.1,0,0.1c0,0,0,0,0.1,0.1c0,0,0.1,0,0.1,0.1l0,0l2.8,1.6l0,0l0,0l0,0l0,0
			l0,0l0,0l0,0l0,0l0,0l0,0l0,0c0,0,0.1,0,0.1,0c0,0,0.1,0,0.1,0C219.3,41.2,219.3,41.2,219.4,41.2
			C219.4,41.2,219.4,41.2,219.4,41.2L219.4,41.2z M219.6,34l2.8,1.6h0l0,0l0,0c0,0,0.1,0,0.1,0c0,0,0,0,0.1,0v-2.1
			c0-0.2,0-0.3,0-0.5c0-0.1-0.1-0.3-0.1-0.4c-0.1-0.1-0.2-0.3-0.3-0.3c-0.1-0.1-0.2-0.2-0.4-0.3l0,0l-2.2-1.3v2.9l0,0l0,0l0,0l0,0
			l0,0l0,0c0,0,0,0.1,0,0.1c0,0,0,0.1,0,0.1C219.5,33.8,219.5,33.8,219.6,34C219.5,33.9,219.6,33.9,219.6,34L219.6,34L219.6,34
			L219.6,34L219.6,34L219.6,34L219.6,34L219.6,34L219.6,34z M213.1,30.2L213.1,30.2 M211.5,34.6l1-0.6l0,0l0,0l0,0l0,0l0,0l0,0l0,0
			l0,0l0,0c0,0,0.1,0,0.1-0.1c0,0,0,0,0.1-0.1c0,0,0-0.1,0-0.1l0,0c0,0,0-0.1,0-0.1l0,0l0,0l0,0l0,0l0,0l0,0l0,0l0,0l0,0v-2.8
			l-0.9,2.7L211.5,34.6L211.5,34.6z"/>
		<path class="st0" d="M210.2,25c-0.1,0-0.3,0-0.4,0h-0.1c-0.2,0-0.4,0-0.5,0l0,0c-0.2,0-0.3,0.1-0.5,0.1c-0.1,0-0.3,0.1-0.4,0.1
			s-0.2,0.1-0.3,0.1l0,0h0l0,0l0,0l0,0l-9.9,5.7l0,0l-0.3,0.2c-0.1,0.1-0.2,0.1-0.3,0.2s-0.2,0.1-0.3,0.2c-0.1,0.1-0.2,0.2-0.3,0.3
			c-0.1,0.1-0.1,0.2-0.2,0.3l-0.1,0.1l0,0l0,0c-0.1,0.2-0.2,0.3-0.2,0.5c-0.1,0.1-0.1,0.3-0.1,0.5c0,0.1-0.1,0.3-0.1,0.4
			s0,0.2,0,0.3V46c0,0.1,0,0.2,0,0.3s0,0.2,0.1,0.4c0,0.1,0.1,0.3,0.1,0.4c0.1,0.1,0.1,0.3,0.2,0.4l0.1,0.1c0.1,0.2,0.2,0.3,0.3,0.5
			s0.2,0.3,0.3,0.3c0.1,0.1,0.2,0.2,0.3,0.3c0.1,0.1,0.2,0.1,0.3,0.2l9.9,5.7l0,0l0.3,0.2l0,0l0,0c0.1,0.1,0.2,0.1,0.3,0.1
			c0.1,0.1,0.2,0.1,0.3,0.1h0h0l0,0h0l0,0c0.1,0.1,0.3,0.1,0.5,0.1c0.1,0,0.3,0,0.4,0h0.1c0.2,0,0.4,0,0.5,0l0,0
			c0.2,0,0.3-0.1,0.5-0.1c0.1,0,0.3-0.1,0.4-0.1c0.1-0.1,0.2-0.1,0.3-0.1l0,0h0l0,0l0,0l0,0l9.9-5.7l0,0l0.3-0.2
			c0.1-0.1,0.2-0.1,0.3-0.2s0.2-0.1,0.3-0.2c0.1-0.1,0.2-0.2,0.3-0.3c0.1-0.1,0.1-0.2,0.2-0.3l0.1-0.1l0,0l0,0
			c0.1-0.2,0.2-0.3,0.2-0.5s0.1-0.3,0.1-0.5c0-0.1,0.1-0.3,0.1-0.4s0-0.2,0-0.3V34.2c0-0.1,0-0.2,0-0.3s0-0.2-0.1-0.4
			c0-0.1-0.1-0.3-0.1-0.4c-0.1-0.1-0.1-0.3-0.2-0.4l-0.1-0.1c-0.1-0.2-0.2-0.3-0.3-0.5c-0.1-0.1-0.2-0.3-0.3-0.3
			c-0.1-0.1-0.2-0.2-0.3-0.3s-0.2-0.1-0.3-0.2l-9.9-5.7l0,0l-0.3-0.2l0,0l0,0c-0.1-0.1-0.2-0.1-0.3-0.2c-0.1,0-0.1-0.1-0.2-0.1
			l-0.1-0.1C210.5,25.1,210.4,25.1,210.2,25L210.2,25z M210.1,25.7c0.1,0,0.3,0.1,0.3,0.1l0.4,0.1v0c0.1,0,0.1,0.1,0.2,0.1l0.3,0.2
			l0,0l9.9,5.7l0,0c0.1,0,0.1,0.1,0.2,0.1c0.1,0.1,0.2,0.1,0.3,0.2c0.1,0.1,0.2,0.2,0.3,0.3s0.2,0.2,0.2,0.3l0,0l0,0l0.2,0.3l0,0v0
			c0.1,0.1,0.1,0.3,0.1,0.3c0,0.1,0,0.2,0.1,0.3c0,0.1,0,0.2,0,0.3V46c0,0.1,0,0.2,0,0.3c0,0.1,0,0.2-0.1,0.3c0,0.1-0.1,0.2-0.1,0.4
			c-0.1,0.1-0.1,0.3-0.2,0.4l-0.2,0.3h0l0,0c-0.1,0.1-0.2,0.2-0.3,0.3c-0.1,0.1-0.2,0.1-0.3,0.2c-0.1,0.1-0.1,0.1-0.2,0.1l0,0l0,0
			l-0.3,0.2l0,0l-9.9,5.7l0,0l0,0l0,0h0h0c-0.1,0-0.1,0.1-0.2,0.1s-0.2,0.1-0.3,0.1c-0.1,0-0.3,0.1-0.4,0.1c-0.1,0-0.3,0-0.4,0h-0.4
			v0h0c-0.1,0-0.3-0.1-0.3-0.1l0,0l0,0l0,0h0h0c-0.1,0-0.2-0.1-0.3-0.1l0,0c-0.1,0-0.1-0.1-0.2-0.1l-0.3-0.2l0,0l-9.9-5.7
			c-0.1,0-0.1-0.1-0.2-0.1c-0.1-0.1-0.2-0.1-0.3-0.2c-0.1-0.1-0.2-0.2-0.3-0.3s-0.2-0.2-0.2-0.3l0,0l0,0l-0.2-0.3l0,0v0
			c-0.1-0.1-0.1-0.3-0.1-0.3c0-0.1,0-0.2-0.1-0.3c0-0.1,0-0.2,0-0.3V34.3c0-0.1,0-0.2,0-0.3l0,0c0-0.1,0-0.2,0.1-0.3
			c0-0.1,0.1-0.2,0.1-0.4c0.1-0.1,0.1-0.3,0.2-0.4l0.2-0.3h0l0,0c0.1-0.1,0.2-0.2,0.3-0.3c0.1-0.1,0.2-0.1,0.3-0.2
			c0.1-0.1,0.1-0.1,0.2-0.1l0,0l0,0l0.3-0.2l0,0l9.9-5.7l0,0l0,0l0,0h0h0c0.1,0,0.1-0.1,0.2-0.1c0.1,0,0.2-0.1,0.3-0.1
			c0.1,0,0.3-0.1,0.4-0.1c0.1,0,0.3,0,0.4,0H210.1L210.1,25.7L210.1,25.7L210.1,25.7z"/>
		<path class="st0" d="M195.2,7.1c0.3,0,0.7,0.1,1,0.2c0.4,0.1,0.8,0.3,1,0.5l8.4,6.1l8.4,6.1c0.2,0.1,0.5,0.4,0.8,0.8
			c0.2,0.3,0.4,0.6,0.5,0.9c0.1,0.3,0.1,0.7,0.1,1c0,0.5-0.1,0.9-0.1,1.1l-3.2,9.9l-3.2,9.9c-0.1,0.3-0.3,0.6-0.5,1
			c-0.2,0.3-0.4,0.5-0.7,0.7c-0.3,0.2-0.6,0.4-0.9,0.5c-0.4,0.1-0.8,0.2-1.1,0.2h-10.4h-10.4c-0.3,0-0.7-0.1-1.1-0.2
			c-0.3-0.1-0.6-0.3-0.9-0.5s-0.5-0.5-0.7-0.8c-0.3-0.4-0.4-0.7-0.5-1l-3.2-9.9l-3.2-9.9c-0.1-0.3-0.2-0.7-0.2-1.1
			c0-0.3,0-0.7,0.1-1c0.1-0.3,0.3-0.7,0.5-0.9c0.3-0.3,0.6-0.7,0.8-0.8l8.4-6.1l8.4-6.1c0.2-0.1,0.6-0.3,1-0.5
			C194.5,7.1,194.8,7,195.2,7.1L195.2,7.1z M196,8c-0.3-0.1-0.5-0.1-0.8-0.1s-0.5,0.1-0.8,0.1c-0.3,0.1-0.6,0.3-0.8,0.4l-8.4,6.1
			l-8.4,6.1c-0.2,0.1-0.4,0.3-0.6,0.6c-0.2,0.2-0.3,0.5-0.4,0.7s-0.1,0.5-0.1,0.8c0,0.3,0.1,0.7,0.1,0.9l3.2,9.9l3.2,9.9
			c0.1,0.2,0.2,0.5,0.4,0.8c0.1,0.2,0.3,0.4,0.6,0.6c0.2,0.1,0.5,0.3,0.7,0.3c0.3,0.1,0.6,0.1,0.9,0.1h10.4h10.4
			c0.2,0,0.5-0.1,0.9-0.1c0.3-0.1,0.5-0.2,0.7-0.3s0.4-0.3,0.5-0.6c0.2-0.3,0.3-0.6,0.4-0.8l3.2-9.9l3.2-9.9
			c0.1-0.2,0.1-0.5,0.1-0.9c0-0.3,0-0.5-0.1-0.8c-0.1-0.3-0.2-0.5-0.4-0.7c-0.2-0.3-0.4-0.5-0.6-0.6l-8.4-6.1l-8.4-6.1
			C196.7,8.2,196.4,8.1,196,8L196,8z"/>
		<path class="st0" d="M195.7,7.1c-0.2,0-0.3-0.1-0.5-0.1c-0.2,0-0.3,0-0.5,0.1c-0.2,0-0.3,0.1-0.5,0.1c-0.2,0.1-0.4,0.1-0.5,0.2
			l0,0c-0.2,0.1-0.3,0.2-0.5,0.3l-8.4,6.1l-8.4,6.1c-0.1,0.1-0.3,0.2-0.4,0.3c-0.1,0.1-0.3,0.3-0.4,0.5c-0.1,0.1-0.2,0.3-0.3,0.5
			s-0.1,0.3-0.2,0.5c-0.1,0.1-0.1,0.3-0.1,0.5c0,0.2,0,0.4,0,0.5c0,0.2,0,0.4,0.1,0.6l0,0c0,0.2,0.1,0.4,0.1,0.5l3.2,9.9l3.2,9.9
			c0,0.1,0.1,0.3,0.2,0.5c0.1,0.2,0.2,0.3,0.3,0.5c0.1,0.1,0.2,0.3,0.3,0.4c0.1,0.1,0.2,0.2,0.4,0.3c0.1,0.1,0.3,0.2,0.4,0.3
			c0.2,0.1,0.3,0.1,0.5,0.2c0.2,0.1,0.4,0.1,0.5,0.1l0,0c0.2,0,0.4,0.1,0.5,0.1h10.4h10.4c0.1,0,0.3,0,0.5-0.1
			c0.2,0,0.4-0.1,0.6-0.1c0.2-0.1,0.3-0.1,0.5-0.2c0.1-0.1,0.3-0.1,0.4-0.3c0.1-0.1,0.3-0.2,0.4-0.3c0.1-0.1,0.2-0.3,0.3-0.4
			c0.1-0.2,0.2-0.3,0.3-0.5c0.1-0.2,0.2-0.3,0.2-0.5l3.2-9.9l3.2-9.9c0-0.1,0.1-0.3,0.1-0.5c0-0.2,0-0.4,0-0.6c0-0.2,0-0.4,0-0.5
			c0-0.2-0.1-0.3-0.1-0.5c-0.1-0.1-0.1-0.3-0.2-0.5c-0.1-0.2-0.2-0.3-0.3-0.5c-0.1-0.2-0.3-0.3-0.4-0.4c-0.1-0.1-0.3-0.3-0.4-0.3
			l-8.4-6.1l-8.4-6.1c-0.1-0.1-0.3-0.2-0.5-0.3c-0.2-0.1-0.3-0.2-0.5-0.2C196.1,7.2,195.9,7.1,195.7,7.1L195.7,7.1z M195.6,7.8
			c0.1,0,0.3,0.1,0.4,0.1s0.3,0.1,0.4,0.2c0.1,0.1,0.3,0.1,0.4,0.2l8.4,6.1l8.4,6.1c0.1,0.1,0.2,0.2,0.3,0.3
			c0.1,0.1,0.2,0.2,0.3,0.3c0.1,0.1,0.1,0.2,0.2,0.3c0.1,0.1,0.1,0.2,0.1,0.3c0,0.1,0.1,0.3,0.1,0.4c0,0.1,0,0.3,0,0.4
			c0,0.2,0,0.3,0,0.5c0,0.2-0.1,0.3-0.1,0.4l-3.2,9.9l-3.2,9.9c0,0.1-0.1,0.2-0.2,0.4c-0.1,0.1-0.1,0.3-0.2,0.4s-0.2,0.2-0.3,0.3
			c-0.1,0.1-0.2,0.2-0.3,0.3s-0.2,0.1-0.3,0.2c-0.1,0.1-0.3,0.1-0.4,0.2c-0.1,0.1-0.3,0.1-0.5,0.1l0,0c-0.2,0-0.3,0.1-0.4,0.1h-10.4
			h-10.4c-0.1,0-0.3,0-0.4,0c-0.1,0-0.3-0.1-0.4-0.1c-0.1,0-0.3-0.1-0.4-0.1c-0.1-0.1-0.2-0.1-0.3-0.2c-0.1-0.1-0.2-0.2-0.3-0.3
			c-0.1-0.1-0.2-0.2-0.3-0.3c-0.1-0.1-0.2-0.3-0.3-0.4c-0.1-0.1-0.1-0.3-0.2-0.4l-3.2-9.9l-3.2-9.9c0-0.1-0.1-0.3-0.1-0.4
			c0-0.1,0-0.3,0-0.5c0-0.1,0-0.3,0-0.4c0-0.1,0.1-0.3,0.1-0.4s0.1-0.2,0.1-0.3l0,0c0.1-0.1,0.1-0.3,0.2-0.4
			c0.1-0.1,0.2-0.3,0.3-0.3c0.1-0.1,0.2-0.2,0.3-0.3l8.4-6.1l8.4-6.1c0.1-0.1,0.2-0.1,0.4-0.2c0.1-0.1,0.3-0.1,0.4-0.2
			c0.1-0.1,0.3-0.1,0.4-0.1c0.1,0,0.3,0,0.4,0S195.4,7.8,195.6,7.8L195.6,7.8z"/>
	</g>
	<path class="st0" d="M26.3,15.7v6.2h-1.9V5.4h4.5c1.8,0,3.1,0.4,4.1,1.3c1,0.9,1.4,2.1,1.4,3.6s-0.5,2.8-1.6,3.9
		c-1.1,1-2.6,1.5-4.4,1.5H26.3z M26.3,7.2V14h2c1.3,0,2.4-0.3,3.1-0.9c0.7-0.6,1-1.5,1-2.6c0-2.2-1.3-3.3-3.9-3.3L26.3,7.2L26.3,7.2
		z M44.9,21.9H43v-1.8H43c-0.8,1.4-2,2.1-3.6,2.1c-1.2,0-2.1-0.3-2.7-0.9c-0.7-0.6-1-1.4-1-2.5c0-2.2,1.3-3.5,3.9-3.9l3.5-0.5
		c0-2-0.8-3-2.4-3c-1.4,0-2.7,0.5-3.9,1.4V11c1.2-0.7,2.5-1.1,4-1.1c2.8,0,4.2,1.5,4.2,4.4L44.9,21.9L44.9,21.9z M43,16l-2.8,0.4
		c-0.9,0.1-1.5,0.3-2,0.7c-0.5,0.3-0.7,0.9-0.7,1.6c0,0.6,0.2,1,0.6,1.4c0.4,0.4,1,0.5,1.6,0.5c0.9,0,1.7-0.3,2.3-1
		c0.6-0.7,0.9-1.5,0.9-2.5V16z M47.5,21.6v-1.8c1,0.6,2.2,0.9,3.6,0.9c2.1,0,3.1-0.7,3.1-2c0-1.3-1.1-2-3.4-2h-1.2v-1.6h1.1
		c2,0,3-0.6,3-1.9c0-0.5-0.2-1-0.7-1.3s-1.1-0.5-1.9-0.5c-1.1,0-2.3,0.3-3.4,0.9v-1.8c1.3-0.5,2.5-0.7,3.6-0.7c2.9,0,4.3,1,4.3,3.2
		c0,0.7-0.2,1.3-0.7,1.8c-0.4,0.5-1,0.8-1.8,1v0.1c0.9,0.1,1.6,0.4,2.1,0.9c0.5,0.5,0.8,1.2,0.8,2c0,1.1-0.4,1.9-1.3,2.6
		s-2.1,1-3.6,1C49.6,22.2,48.3,22,47.5,21.6L47.5,21.6z M60.9,20.3L60.9,20.3l-0.1,7.1H59V10.2h1.9v2.1h0.1c0.9-1.6,2.3-2.4,4.1-2.4
		c1.5,0,2.7,0.5,3.5,1.6s1.3,2.5,1.3,4.3c0,2-0.5,3.5-1.4,4.7c-1,1.2-2.3,1.8-3.9,1.8C62.9,22.3,61.7,21.6,60.9,20.3L60.9,20.3z
		 M60.9,15.5v1.6c0,1,0.3,1.8,1,2.5c0.6,0.7,1.4,1,2.4,1c1.1,0,2-0.4,2.7-1.3c0.7-0.9,1-2.1,1-3.7c0-1.3-0.3-2.3-0.9-3.1
		c-0.6-0.7-1.4-1.1-2.5-1.1c-1.1,0-2,0.4-2.6,1.1C61.2,13.4,60.9,14.4,60.9,15.5L60.9,15.5z M81,22h-1.9v-1.8H79
		c-0.8,1.4-2,2.1-3.6,2.1c-1.2,0-2.1-0.3-2.7-0.9c-0.7-0.6-1-1.4-1-2.5c0-2.2,1.3-3.5,3.9-3.9l3.5-0.5c0-2-0.8-3-2.4-3
		c-1.4,0-2.7,0.5-3.9,1.4V11c1.2-0.7,2.5-1.1,4-1.1c2.8,0,4.2,1.5,4.2,4.4L81,22L81,22z M79.1,16l-2.8,0.4c-0.9,0.1-1.5,0.3-2,0.7
		c-0.5,0.3-0.7,0.9-0.7,1.6c0,0.6,0.2,1,0.6,1.4c0.4,0.4,1,0.5,1.6,0.5c0.9,0,1.7-0.3,2.3-1s0.9-1.5,0.9-2.5V16z M93.6,4.4v1.8
		c-0.3,0.2-0.8,0.4-1.5,0.5c-1.7,0.3-2.9,0.5-3.6,0.8c-0.7,0.3-1.2,0.8-1.7,1.6c-0.5,0.8-0.7,2-0.9,3.5H86c0.9-1.3,2.2-2,3.9-2
		c1.6,0,2.8,0.5,3.8,1.6c1,1.1,1.4,2.5,1.4,4.2c0,1.8-0.5,3.3-1.5,4.3c-1,1.1-2.3,1.6-4,1.6c-1.8,0-3.2-0.7-4.2-1.9
		s-1.5-3.1-1.5-5.5c0-1.9,0.2-3.4,0.5-4.7c0.3-1.3,0.9-2.3,1.5-2.9s1.3-1.1,2.1-1.3C88.8,5.6,90.1,5.3,92,5
		C92.7,4.8,93.2,4.6,93.6,4.4L93.6,4.4z M85.9,14.3V16c0,0.6,0.1,1.2,0.3,1.8c0.2,0.6,0.4,1.1,0.8,1.6c0.3,0.5,0.7,0.8,1.2,1
		s1,0.3,1.5,0.3c1,0,1.9-0.4,2.6-1.2c0.7-0.8,1-1.8,1-3c0-1.4-0.3-2.4-1-3.2c-0.7-0.8-1.6-1.2-2.7-1.2
		C87.9,12.1,86.7,12.8,85.9,14.3L85.9,14.3z M103.1,22.3c-1.7,0-3.1-0.5-4.2-1.6c-1-1.1-1.6-2.6-1.6-4.4c0-2,0.5-3.5,1.6-4.6
		c1.1-1.1,2.6-1.7,4.4-1.7c1.8,0,3.1,0.5,4.1,1.6s1.5,2.6,1.5,4.5c0,1.9-0.5,3.4-1.6,4.5C106.3,21.7,104.9,22.3,103.1,22.3z
		 M103.2,11.5c-1.2,0-2.2,0.4-2.9,1.2s-1,2-1,3.4c0,1.4,0.4,2.5,1.1,3.3c0.7,0.8,1.7,1.2,2.9,1.2c1.2,0,2.2-0.4,2.8-1.2
		c0.7-0.8,1-1.9,1-3.4s-0.3-2.6-1-3.4C105.4,11.9,104.5,11.5,103.2,11.5L103.2,11.5z M118.9,11.8h-3.5V22h-1.9V11.8H110v-1.6h9
		L118.9,11.8L118.9,11.8z M129.7,22h-1.9v-1.8h-0.1c-0.8,1.4-2,2.1-3.6,2.1c-1.2,0-2.1-0.3-2.7-0.9c-0.7-0.6-1-1.4-1-2.5
		c0-2.2,1.3-3.5,3.9-3.9l3.5-0.5c0-2-0.8-3-2.4-3c-1.4,0-2.7,0.5-3.9,1.4v-1.9c1.2-0.7,2.5-1.1,4-1.1c2.8,0,4.2,1.5,4.2,4.4
		L129.7,22L129.7,22z M127.8,16l-2.8,0.4c-0.9,0.1-1.5,0.3-2,0.7c-0.5,0.3-0.7,0.9-0.7,1.6c0,0.6,0.2,1,0.6,1.4
		c0.4,0.4,1,0.5,1.6,0.5c0.9,0,1.7-0.3,2.3-1c0.6-0.7,0.9-1.5,0.9-2.5V16z M143,22h-1.9v-5.4h-6V22h-1.9V10.2h1.9V15h6v-4.8h1.9V22z
		 M151.7,22.3c-1.7,0-3.1-0.5-4.2-1.6s-1.6-2.6-1.6-4.4c0-2,0.5-3.5,1.6-4.6c1.1-1.1,2.6-1.7,4.4-1.7c1.8,0,3.1,0.5,4.1,1.6
		s1.5,2.6,1.5,4.5c0,1.9-0.5,3.4-1.6,4.5C154.9,21.7,153.5,22.3,151.7,22.3z M151.8,11.5c-1.2,0-2.2,0.4-2.9,1.2s-1,2-1,3.4
		c0,1.4,0.4,2.5,1.1,3.3s1.7,1.2,2.9,1.2c1.2,0,2.2-0.4,2.8-1.2s1-1.9,1-3.4s-0.3-2.6-1-3.4S153.1,11.5,151.8,11.5L151.8,11.5z
		 M12.2,45.5H8.6v-1.6H8.6c-0.8,1.3-2,1.9-3.7,1.9c-1.5,0-2.7-0.5-3.5-1.6c-0.9-1-1.4-2.5-1.4-4.4c0-2,0.5-3.5,1.5-4.7
		s2.3-1.8,3.9-1.8c1.5,0,2.6,0.5,3.2,1.6h0.1v-7h3.6L12.2,45.5L12.2,45.5z M8.7,39.8v-0.9c0-0.8-0.2-1.4-0.7-1.9
		c-0.5-0.5-1-0.8-1.7-0.8c-0.8,0-1.4,0.3-1.9,0.9c-0.5,0.6-0.7,1.5-0.7,2.6c0,1,0.2,1.8,0.7,2.4c0.5,0.6,1,0.9,1.8,0.9
		c0.7,0,1.3-0.3,1.8-0.9C8.4,41.6,8.7,40.8,8.7,39.8z M21.7,40.5h-6.3V38h6.3V40.5z M34.6,45.5h-3.4v-1.7h-0.1c-0.8,1.3-2,2-3.5,2
		c-1.1,0-2-0.3-2.7-1s-1-1.5-1-2.6c0-2.3,1.4-3.6,4.1-4l3.2-0.4c0-1.3-0.7-1.9-2.1-1.9c-1.4,0-2.7,0.4-4,1.2v-2.7
		c0.5-0.3,1.2-0.5,2.1-0.7c0.9-0.2,1.7-0.3,2.4-0.3c3.3,0,5,1.7,5,5V45.5L34.6,45.5z M31.2,40.7v-0.8l-2.2,0.3
		c-1.2,0.1-1.8,0.7-1.8,1.6c0,0.4,0.1,0.8,0.4,1c0.3,0.3,0.7,0.4,1.2,0.4c0.7,0,1.2-0.2,1.7-0.7C31,42.1,31.2,41.5,31.2,40.7
		L31.2,40.7z M49,45.5h-3.6v-1.6h-0.1c-0.8,1.3-2,1.9-3.7,1.9c-1.5,0-2.7-0.5-3.5-1.6c-0.9-1-1.4-2.5-1.4-4.4c0-2,0.5-3.5,1.5-4.7
		s2.3-1.8,3.9-1.8c1.5,0,2.6,0.5,3.2,1.6h0.1v-7H49L49,45.5L49,45.5z M45.5,39.8v-0.9c0-0.8-0.2-1.4-0.7-1.9s-1-0.8-1.7-0.8
		c-0.8,0-1.4,0.3-1.9,0.9s-0.7,1.5-0.7,2.6c0,1,0.2,1.8,0.7,2.4c0.5,0.6,1,0.9,1.8,0.9c0.7,0,1.3-0.3,1.8-0.9
		C45.2,41.6,45.5,40.8,45.5,39.8z M63.3,33.7l-4.4,11.8h-4.1l-4.2-11.8h3.9l2,7.3c0.2,0.8,0.4,1.5,0.4,2.1H57c0.1-0.5,0.2-1.2,0.4-2
		l2.1-7.3L63.3,33.7L63.3,33.7z M74.3,45.5h-3.4v-1.7h-0.1c-0.8,1.3-2,2-3.5,2c-1.1,0-2-0.3-2.7-1c-0.7-0.7-1-1.5-1-2.6
		c0-2.3,1.4-3.6,4.1-4l3.2-0.4c0-1.3-0.7-1.9-2.1-1.9s-2.7,0.4-4,1.2v-2.7c0.5-0.3,1.2-0.5,2.1-0.7s1.7-0.3,2.4-0.3c3.3,0,5,1.7,5,5
		V45.5L74.3,45.5z M70.9,40.7v-0.8l-2.2,0.3c-1.2,0.1-1.8,0.7-1.8,1.6c0,0.4,0.1,0.8,0.4,1c0.3,0.3,0.7,0.4,1.2,0.4
		c0.7,0,1.2-0.2,1.7-0.7C70.7,42.1,70.9,41.5,70.9,40.7L70.9,40.7z M88.6,45.5H85V39c0-1.8-0.7-2.7-2-2.7c-0.6,0-1.1,0.2-1.6,0.7
		c-0.4,0.5-0.6,1.1-0.6,1.8v6.7h-3.6V33.7h3.6v1.9h0.1c0.9-1.4,2.1-2.2,3.8-2.2c2.6,0,3.9,1.6,3.9,4.8V45.5z M100.4,45.1
		c-0.8,0.5-2,0.7-3.5,0.7c-1.8,0-3.3-0.5-4.4-1.6c-1.1-1.1-1.7-2.5-1.7-4.3c0-2,0.6-3.6,1.8-4.7c1.2-1.2,2.8-1.7,4.8-1.7
		c1.4,0,2.4,0.2,3,0.5v3.1c-0.8-0.6-1.6-0.9-2.6-0.9c-1,0-1.9,0.3-2.5,0.9c-0.6,0.6-0.9,1.4-0.9,2.5c0,1,0.3,1.9,0.9,2.5
		c0.6,0.6,1.4,0.9,2.4,0.9c0.9,0,1.8-0.3,2.7-0.9V45.1L100.4,45.1z M113.4,40.7h-7.7c0.1,1.7,1.2,2.6,3.2,2.6c1.3,0,2.4-0.3,3.4-0.9
		V45c-1.1,0.6-2.5,0.9-4.3,0.9c-1.9,0-3.4-0.5-4.4-1.6c-1-1-1.6-2.5-1.6-4.4c0-2,0.6-3.5,1.7-4.6s2.5-1.7,4.2-1.7
		c1.7,0,3.1,0.5,4,1.5c0.9,1,1.4,2.4,1.4,4.2L113.4,40.7L113.4,40.7z M110,38.4c0-1.7-0.7-2.5-2-2.5c-0.6,0-1.1,0.2-1.5,0.7
		c-0.4,0.5-0.7,1.1-0.8,1.8H110L110,38.4z M117.2,45.8c-0.6,0-1.1-0.2-1.5-0.5c-0.4-0.4-0.6-0.8-0.6-1.4c0-0.6,0.2-1,0.6-1.4
		c0.4-0.3,0.9-0.5,1.5-0.5c0.6,0,1.1,0.2,1.5,0.5c0.4,0.3,0.6,0.8,0.6,1.4s-0.2,1-0.6,1.4C118.3,45.6,117.8,45.8,117.2,45.8
		L117.2,45.8z M125.6,44.2L125.6,44.2l-0.1,6.8h-3.6V33.8h3.6v1.8h0.1c0.9-1.4,2.2-2.1,3.8-2.1c1.5,0,2.7,0.5,3.5,1.6
		c0.8,1,1.2,2.5,1.2,4.3c0,2-0.5,3.5-1.4,4.7s-2.3,1.8-3.9,1.8C127.4,45.8,126.4,45.3,125.6,44.2L125.6,44.2z M125.5,39.3v0.9
		c0,0.8,0.2,1.5,0.7,2c0.4,0.5,1,0.8,1.7,0.8c0.8,0,1.5-0.3,1.9-1s0.7-1.6,0.7-2.7c0-2.1-0.8-3.1-2.4-3.1c-0.7,0-1.4,0.3-1.8,0.9
		C125.7,37.6,125.5,38.4,125.5,39.3L125.5,39.3z M144.2,37c-0.5-0.2-1-0.4-1.5-0.4c-0.8,0-1.4,0.3-1.8,0.9c-0.5,0.6-0.7,1.4-0.7,2.4
		v5.6h-3.6V33.8h3.6v2.2h0.1c0.6-1.6,1.6-2.4,3.1-2.4c0.4,0,0.7,0.1,0.9,0.1L144.2,37L144.2,37z M151.5,45.8c-2,0-3.5-0.5-4.6-1.6
		c-1.1-1.1-1.7-2.6-1.7-4.5c0-2,0.6-3.5,1.8-4.6c1.2-1.1,2.7-1.6,4.7-1.6c2,0,3.5,0.5,4.6,1.6c1.1,1.1,1.7,2.6,1.7,4.4
		c0,2-0.6,3.5-1.7,4.6C155.1,45.3,153.5,45.9,151.5,45.8L151.5,45.8z M151.5,36.3c-0.9,0-1.5,0.3-2,0.9c-0.5,0.6-0.7,1.4-0.7,2.5
		c0,2.3,0.9,3.4,2.7,3.4c1.7,0,2.6-1.2,2.6-3.5C154.2,37.4,153.3,36.3,151.5,36.3z"/>
</g>
</svg>
